solid OpenSCAD_Model
  facet normal 0 0 -1
    outer loop
      vertex -19 -9 0
      vertex -18.7815 -6.92088 0
      vertex -18.7815 -11.0791 0
    endloop
  endfacet
  facet normal 0 0 -1
    outer loop
      vertex -18.7815 -11.0791 0
      vertex -18.7815 -6.92088 0
      vertex -18.1355 -4.93263 0
    endloop
  endfacet
  facet normal 0 0 -1
    outer loop
      vertex -18.7815 -11.0791 0
      vertex -18.1355 -4.93263 0
      vertex -17.0902 -3.12215 0
    endloop
  endfacet
  facet normal 0 0 -1
    outer loop
      vertex -18.2444 -9.05886 0
      vertex -17.0902 -3.12215 0
      vertex -15.6913 -1.56855 0
    endloop
  endfacet
  facet normal 0 0 -1
    outer loop
      vertex -17.4952 -7.25 0
      vertex -15.6913 -1.56855 0
      vertex -14 -0.339746 0
    endloop
  endfacet
  facet normal 0 0 -1
    outer loop
      vertex -16.3033 -5.6967 0
      vertex -14 -0.339746 0
      vertex -12.0902 0.510565 0
    endloop
  endfacet
  facet normal 0 0 -1
    outer loop
      vertex -14.75 -4.50481 0
      vertex -12.0902 0.510565 0
      vertex -10.0453 0.945219 0
    endloop
  endfacet
  facet normal 0 0 -1
    outer loop
      vertex -12.9411 -3.75556 0
      vertex -10.0453 0.945219 0
      vertex -7.95471 0.945219 0
    endloop
  endfacet
  facet normal 0 0 -1
    outer loop
      vertex -8.09017 2.12215 0
      vertex -9.13546 3.93263 0
      vertex -6.8117 0.702264 0
    endloop
  endfacet
  facet normal 0 0 -1
    outer loop
      vertex -9.13546 3.93263 0
      vertex -9.78148 5.92088 0
      vertex -6.8117 0.702264 0
    endloop
  endfacet
  facet normal 0 0 -1
    outer loop
      vertex -9.78148 5.92088 0
      vertex -10 8 0
      vertex -6.8117 0.702264 0
    endloop
  endfacet
  facet normal 0 0 -1
    outer loop
      vertex -6.8117 0.702264 0
      vertex -10 8 0
      vertex -9.78148 10.0791 0
    endloop
  endfacet
  facet normal 0 0 -1
    outer loop
      vertex -9.78148 10.0791 0
      vertex -9.13546 12.0674 0
      vertex -6.8117 0.702264 0
    endloop
  endfacet
  facet normal 0 0 -1
    outer loop
      vertex -6.8117 0.702264 0
      vertex -9.13546 12.0674 0
      vertex -8.09017 13.8779 0
    endloop
  endfacet
  facet normal 0 0 -1
    outer loop
      vertex -7.24444 12.9411 0
      vertex -8.09017 13.8779 0
      vertex -6.69131 15.4314 0
    endloop
  endfacet
  facet normal 0 0 -1
    outer loop
      vertex -5.3033 16.3033 0
      vertex -6.69131 15.4314 0
      vertex -5 16.6603 0
    endloop
  endfacet
  facet normal 0 0 -1
    outer loop
      vertex -6.49519 14.75 0
      vertex -6.69131 15.4314 0
      vertex -5.3033 16.3033 0
    endloop
  endfacet
  facet normal 0 0 -1
    outer loop
      vertex -7.24444 12.9411 0
      vertex -6.69131 15.4314 0
      vertex -6.49519 14.75 0
    endloop
  endfacet
  facet normal 0 0 -1
    outer loop
      vertex -7.5 11 0
      vertex -8.09017 13.8779 0
      vertex -7.24444 12.9411 0
    endloop
  endfacet
  facet normal 0 0 -1
    outer loop
      vertex -6.49519 7.25 0
      vertex -6.8117 0.702264 0
      vertex -7.24444 9.05886 0
    endloop
  endfacet
  facet normal 0 0 -1
    outer loop
      vertex -6.8117 0.702264 0
      vertex -8.09017 13.8779 0
      vertex -7.5 11 0
    endloop
  endfacet
  facet normal 0 0 -1
    outer loop
      vertex -6.8117 0.702264 0
      vertex -7.5 11 0
      vertex -7.24444 9.05886 0
    endloop
  endfacet
  facet normal 0 0 -1
    outer loop
      vertex -5.3033 5.6967 0
      vertex -6.8117 0.702264 0
      vertex -6.49519 7.25 0
    endloop
  endfacet
  facet normal 0 0 -1
    outer loop
      vertex 18.5 -11 0
      vertex 18.7815 -11.0791 0
      vertex 18.2907 -12.5894 0
    endloop
  endfacet
  facet normal 0 0 -1
    outer loop
      vertex -6.8117 0.702264 0
      vertex -5.3033 5.6967 0
      vertex -3.75 4.50481 0
    endloop
  endfacet
  facet normal 0 0 -1
    outer loop
      vertex -12.9411 -3.75556 0
      vertex -7.95471 0.945219 0
      vertex -6.8117 0.702264 0
    endloop
  endfacet
  facet normal 0 0 -1
    outer loop
      vertex -3.75 4.50481 0
      vertex -1.94114 3.75556 0
      vertex -6.8117 0.702264 0
    endloop
  endfacet
  facet normal 0 0 -1
    outer loop
      vertex -12.9411 -3.75556 0
      vertex -6.8117 0.702264 0
      vertex -11 -3.5 0
    endloop
  endfacet
  facet normal 0 0 -1
    outer loop
      vertex -11 -3.5 0
      vertex -1.94114 3.75556 0
      vertex 0 3.5 0
    endloop
  endfacet
  facet normal 0 0 -1
    outer loop
      vertex -11 -3.5 0
      vertex 0 3.5 0
      vertex -9.05886 -3.75556 0
    endloop
  endfacet
  facet normal 0 0 -1
    outer loop
      vertex 7.5 11 0
      vertex 8.09017 13.8779 0
      vertex 7.24444 9.05886 0
    endloop
  endfacet
  facet normal 0 0 -1
    outer loop
      vertex 6.49519 14.75 0
      vertex 6.69131 15.4314 0
      vertex 7.24444 12.9411 0
    endloop
  endfacet
  facet normal 0 0 -1
    outer loop
      vertex 5.3033 16.3033 0
      vertex 4.61434 16.832 0
      vertex 5 16.6603 0
    endloop
  endfacet
  facet normal 0 0 -1
    outer loop
      vertex 5.3033 16.3033 0
      vertex 5 16.6603 0
      vertex 6.69131 15.4314 0
    endloop
  endfacet
  facet normal 0 0 -1
    outer loop
      vertex 5.3033 16.3033 0
      vertex 6.69131 15.4314 0
      vertex 6.49519 14.75 0
    endloop
  endfacet
  facet normal 0 0 -1
    outer loop
      vertex 7.24444 12.9411 0
      vertex 6.69131 15.4314 0
      vertex 8.09017 13.8779 0
    endloop
  endfacet
  facet normal 0 0 -1
    outer loop
      vertex 7.24444 12.9411 0
      vertex 8.09017 13.8779 0
      vertex 7.5 11 0
    endloop
  endfacet
  facet normal 0 0 -1
    outer loop
      vertex 7.24444 9.05886 0
      vertex 8.09017 13.8779 0
      vertex 9.13546 12.0674 0
    endloop
  endfacet
  facet normal 0 0 -1
    outer loop
      vertex 7.24444 9.05886 0
      vertex 9.13546 12.0674 0
      vertex 6.49519 7.25 0
    endloop
  endfacet
  facet normal 0 0 -1
    outer loop
      vertex 6.49519 7.25 0
      vertex 9.13546 12.0674 0
      vertex 9.78148 10.0791 0
    endloop
  endfacet
  facet normal 0 0 -1
    outer loop
      vertex 6.49519 7.25 0
      vertex 9.78148 10.0791 0
      vertex 5.3033 5.6967 0
    endloop
  endfacet
  facet normal 0 0 -1
    outer loop
      vertex 5.3033 5.6967 0
      vertex 9.78148 10.0791 0
      vertex 10 8 0
    endloop
  endfacet
  facet normal 0 0 -1
    outer loop
      vertex 5.3033 5.6967 0
      vertex 10 8 0
      vertex 3.75 4.50481 0
    endloop
  endfacet
  facet normal 0 0 -1
    outer loop
      vertex -2.1883 -1.70226 0
      vertex 9.78148 5.92088 0
      vertex 9.13546 3.93263 0
    endloop
  endfacet
  facet normal 0 0 -1
    outer loop
      vertex -1.04529 -1.94522 0
      vertex 9.13546 3.93263 0
      vertex 8.09017 2.12215 0
    endloop
  endfacet
  facet normal 0 0 -1
    outer loop
      vertex 1.04529 -1.94522 0
      vertex 8.09017 2.12215 0
      vertex 6.8117 0.702264 0
    endloop
  endfacet
  facet normal 0 0 -1
    outer loop
      vertex 0 -4.69802 0
      vertex -5.6967 -5.6967 0
      vertex -0.90983 -3.12215 0
    endloop
  endfacet
  facet normal 0 0 -1
    outer loop
      vertex 12.9411 -3.75556 0
      vertex 15.6913 -1.56855 0
      vertex 17.0902 -3.12215 0
    endloop
  endfacet
  facet normal 0 0 -1
    outer loop
      vertex 14.75 -4.50481 0
      vertex 17.0902 -3.12215 0
      vertex 18.1355 -4.93263 0
    endloop
  endfacet
  facet normal 0 0 -1
    outer loop
      vertex 16.3033 -5.6967 0
      vertex 18.1355 -4.93263 0
      vertex 18.7815 -6.92088 0
    endloop
  endfacet
  facet normal 0 0 -1
    outer loop
      vertex 17.4952 -7.25 0
      vertex 18.7815 -6.92088 0
      vertex 19 -9 0
    endloop
  endfacet
  facet normal 0 0 -1
    outer loop
      vertex 18.5 -11 0
      vertex 19 -9 0
      vertex 18.7815 -11.0791 0
    endloop
  endfacet
  facet normal 0 0 -1
    outer loop
      vertex 18.2444 -9.05886 0
      vertex 19 -9 0
      vertex 18.5 -11 0
    endloop
  endfacet
  facet normal 0 0 -1
    outer loop
      vertex 17.4952 -7.25 0
      vertex 19 -9 0
      vertex 18.2444 -9.05886 0
    endloop
  endfacet
  facet normal 0 0 -1
    outer loop
      vertex 16.3033 -5.6967 0
      vertex 18.7815 -6.92088 0
      vertex 17.4952 -7.25 0
    endloop
  endfacet
  facet normal 0 0 -1
    outer loop
      vertex 14.75 -4.50481 0
      vertex 18.1355 -4.93263 0
      vertex 16.3033 -5.6967 0
    endloop
  endfacet
  facet normal 0 0 -1
    outer loop
      vertex 3.75556 -9.05886 0
      vertex -3.75556 -9.05886 0
      vertex 4.50481 -7.25 0
    endloop
  endfacet
  facet normal 0 0 -1
    outer loop
      vertex 12.9411 -3.75556 0
      vertex 17.0902 -3.12215 0
      vertex 14.75 -4.50481 0
    endloop
  endfacet
  facet normal 0 0 -1
    outer loop
      vertex 11 -3.5 0
      vertex 15.6913 -1.56855 0
      vertex 12.9411 -3.75556 0
    endloop
  endfacet
  facet normal 0 0 -1
    outer loop
      vertex 0 -4.69802 0
      vertex 14 -0.339746 0
      vertex 15.6913 -1.56855 0
    endloop
  endfacet
  facet normal 0 0 -1
    outer loop
      vertex 9.05886 -3.75556 0
      vertex 15.6913 -1.56855 0
      vertex 11 -3.5 0
    endloop
  endfacet
  facet normal 0 0 -1
    outer loop
      vertex -4.50481 -7.25 0
      vertex 15.6913 -1.56855 0
      vertex 9.05886 -3.75556 0
    endloop
  endfacet
  facet normal 0 0 -1
    outer loop
      vertex 0 -4.69802 0
      vertex 15.6913 -1.56855 0
      vertex -4.50481 -7.25 0
    endloop
  endfacet
  facet normal 0 0 -1
    outer loop
      vertex -5.6967 -5.6967 0
      vertex 0 -4.69802 0
      vertex -4.50481 -7.25 0
    endloop
  endfacet
  facet normal 0 0 -1
    outer loop
      vertex -4.50481 -7.25 0
      vertex 7.25 -4.50481 0
      vertex 5.6967 -5.6967 0
    endloop
  endfacet
  facet normal 0 0 -1
    outer loop
      vertex 3.5 -11 0
      vertex -3.5 -11 0
      vertex 3.75556 -9.05886 0
    endloop
  endfacet
  facet normal 0 0 -1
    outer loop
      vertex 4 -17.6603 0
      vertex 7.95471 -18.9452 0
      vertex 5.90983 -18.5106 0
    endloop
  endfacet
  facet normal 0 0 -1
    outer loop
      vertex 0 -13.302 0
      vertex 3.75556 -12.9411 0
      vertex 4.50481 -14.75 0
    endloop
  endfacet
  facet normal 0 0 -1
    outer loop
      vertex -3.5 -11 0
      vertex 3.75556 -12.9411 0
      vertex 0 -13.302 0
    endloop
  endfacet
  facet normal 0 0 -1
    outer loop
      vertex -2.30869 -16.4314 0
      vertex -4.50481 -14.75 0
      vertex -0.90983 -14.8779 0
    endloop
  endfacet
  facet normal 0 0 -1
    outer loop
      vertex 0.90983 -14.8779 0
      vertex 7.25 -17.4952 0
      vertex 2.30869 -16.4314 0
    endloop
  endfacet
  facet normal 0 0 -1
    outer loop
      vertex -18.2907 -12.5894 0
      vertex -18.7815 -11.0791 0
      vertex -18.5 -11 0
    endloop
  endfacet
  facet normal 0 0 -1
    outer loop
      vertex 11 -18.5 0
      vertex 12.5816 -18.2918 0
      vertex 12.0902 -18.5106 0
    endloop
  endfacet
  facet normal 0 0 -1
    outer loop
      vertex 11 -18.5 0
      vertex 12.0902 -18.5106 0
      vertex 10.0453 -18.9452 0
    endloop
  endfacet
  facet normal 0 0 -1
    outer loop
      vertex 11 -18.5 0
      vertex 10.0453 -18.9452 0
      vertex 9.05886 -18.2444 0
    endloop
  endfacet
  facet normal 0 0 -1
    outer loop
      vertex 4 -17.6603 0
      vertex 10.0453 -18.9452 0
      vertex 7.95471 -18.9452 0
    endloop
  endfacet
  facet normal 0 0 -1
    outer loop
      vertex 2.30869 -16.4314 0
      vertex 10.0453 -18.9452 0
      vertex 4 -17.6603 0
    endloop
  endfacet
  facet normal 0 0 -1
    outer loop
      vertex 2.30869 -16.4314 0
      vertex 9.05886 -18.2444 0
      vertex 10.0453 -18.9452 0
    endloop
  endfacet
  facet normal 0 0 -1
    outer loop
      vertex 7.25 -17.4952 0
      vertex 9.05886 -18.2444 0
      vertex 2.30869 -16.4314 0
    endloop
  endfacet
  facet normal 0 0 -1
    outer loop
      vertex 4.50481 -14.75 0
      vertex 5.6967 -16.3033 0
      vertex 0.90983 -14.8779 0
    endloop
  endfacet
  facet normal 0 0 -1
    outer loop
      vertex -4.50481 -7.25 0
      vertex 5.6967 -5.6967 0
      vertex 4.50481 -7.25 0
    endloop
  endfacet
  facet normal 0 0 -1
    outer loop
      vertex -3.5 -11 0
      vertex 3.5 -11 0
      vertex 3.75556 -12.9411 0
    endloop
  endfacet
  facet normal 0 0 -1
    outer loop
      vertex 0 -13.302 0
      vertex 4.50481 -14.75 0
      vertex 0.90983 -14.8779 0
    endloop
  endfacet
  facet normal 0 0 -1
    outer loop
      vertex -3.75556 -12.9411 0
      vertex -0.90983 -14.8779 0
      vertex -4.50481 -14.75 0
    endloop
  endfacet
  facet normal 0 0 -1
    outer loop
      vertex -11 -18.5 0
      vertex -12.0902 -18.5106 0
      vertex -12.5816 -18.2918 0
    endloop
  endfacet
  facet normal 0 0 -1
    outer loop
      vertex -5.6967 -16.3033 0
      vertex -2.30869 -16.4314 0
      vertex -4 -17.6603 0
    endloop
  endfacet
  facet normal 0 0 -1
    outer loop
      vertex -5.6967 -16.3033 0
      vertex -4 -17.6603 0
      vertex -7.25 -17.4952 0
    endloop
  endfacet
  facet normal 0 0 -1
    outer loop
      vertex -9.05886 -18.2444 0
      vertex -7.95471 -18.9452 0
      vertex -10.0453 -18.9452 0
    endloop
  endfacet
  facet normal 0 0 -1
    outer loop
      vertex -11 -18.5 0
      vertex -10.0453 -18.9452 0
      vertex -12.0902 -18.5106 0
    endloop
  endfacet
  facet normal 0 0 -1
    outer loop
      vertex -7.25 -17.4952 0
      vertex -7.95471 -18.9452 0
      vertex -9.05886 -18.2444 0
    endloop
  endfacet
  facet normal 0 0 -1
    outer loop
      vertex -9.05886 -18.2444 0
      vertex -10.0453 -18.9452 0
      vertex -11 -18.5 0
    endloop
  endfacet
  facet normal 0 0 -1
    outer loop
      vertex -3.5 -11 0
      vertex 0 -13.302 0
      vertex -3.75556 -12.9411 0
    endloop
  endfacet
  facet normal 0 0 -1
    outer loop
      vertex -7.25 -17.4952 0
      vertex -5.90983 -18.5106 0
      vertex -7.95471 -18.9452 0
    endloop
  endfacet
  facet normal 0 0 -1
    outer loop
      vertex -4 -17.6603 0
      vertex -5.90983 -18.5106 0
      vertex -7.25 -17.4952 0
    endloop
  endfacet
  facet normal 0 0 -1
    outer loop
      vertex -4.50481 -14.75 0
      vertex -2.30869 -16.4314 0
      vertex -5.6967 -16.3033 0
    endloop
  endfacet
  facet normal 0 0 -1
    outer loop
      vertex 0.90983 -14.8779 0
      vertex 5.6967 -16.3033 0
      vertex 7.25 -17.4952 0
    endloop
  endfacet
  facet normal 0 0 -1
    outer loop
      vertex -4.50481 -7.25 0
      vertex 4.50481 -7.25 0
      vertex -3.75556 -9.05886 0
    endloop
  endfacet
  facet normal 0 0 -1
    outer loop
      vertex -0.90983 -14.8779 0
      vertex -3.75556 -12.9411 0
      vertex 0 -13.302 0
    endloop
  endfacet
  facet normal 0 0 -1
    outer loop
      vertex -3.75556 -9.05886 0
      vertex 3.75556 -9.05886 0
      vertex -3.5 -11 0
    endloop
  endfacet
  facet normal 0 0 -1
    outer loop
      vertex -4.50481 -7.25 0
      vertex 9.05886 -3.75556 0
      vertex 7.25 -4.50481 0
    endloop
  endfacet
  facet normal 0 0 -1
    outer loop
      vertex 2.1883 -1.70226 0
      vertex 10.0453 0.945219 0
      vertex 0.90983 -3.12215 0
    endloop
  endfacet
  facet normal 0 0 -1
    outer loop
      vertex -9.05886 -3.75556 0
      vertex 1.94114 3.75556 0
      vertex 3.75 4.50481 0
    endloop
  endfacet
  facet normal 0 0 -1
    outer loop
      vertex 0 3.5 0
      vertex 1.94114 3.75556 0
      vertex -9.05886 -3.75556 0
    endloop
  endfacet
  facet normal 0 0 -1
    outer loop
      vertex -6.8117 0.702264 0
      vertex -1.94114 3.75556 0
      vertex -11 -3.5 0
    endloop
  endfacet
  facet normal 0 0 -1
    outer loop
      vertex -14.75 -4.50481 0
      vertex -10.0453 0.945219 0
      vertex -12.9411 -3.75556 0
    endloop
  endfacet
  facet normal 0 0 -1
    outer loop
      vertex -16.3033 -5.6967 0
      vertex -12.0902 0.510565 0
      vertex -14.75 -4.50481 0
    endloop
  endfacet
  facet normal 0 0 -1
    outer loop
      vertex -17.4952 -7.25 0
      vertex -14 -0.339746 0
      vertex -16.3033 -5.6967 0
    endloop
  endfacet
  facet normal 0 0 -1
    outer loop
      vertex -18.2444 -9.05886 0
      vertex -15.6913 -1.56855 0
      vertex -17.4952 -7.25 0
    endloop
  endfacet
  facet normal 0 0 -1
    outer loop
      vertex -18.7815 -11.0791 0
      vertex -17.0902 -3.12215 0
      vertex -18.2444 -9.05886 0
    endloop
  endfacet
  facet normal 0 0 -1
    outer loop
      vertex -18.5 -11 0
      vertex -18.7815 -11.0791 0
      vertex -18.2444 -9.05886 0
    endloop
  endfacet
  facet normal 0 0 -1
    outer loop
      vertex 1.04529 -1.94522 0
      vertex 6.8117 0.702264 0
      vertex 7.95471 0.945219 0
    endloop
  endfacet
  facet normal 0 0 -1
    outer loop
      vertex -2.1883 -1.70226 0
      vertex 9.13546 3.93263 0
      vertex -1.04529 -1.94522 0
    endloop
  endfacet
  facet normal 0 0 -1
    outer loop
      vertex -9.05886 -3.75556 0
      vertex 3.75 4.50481 0
      vertex 10 8 0
    endloop
  endfacet
  facet normal 0 0 -1
    outer loop
      vertex -9.05886 -3.75556 0
      vertex 10 8 0
      vertex 9.78148 5.92088 0
    endloop
  endfacet
  facet normal 0 0 -1
    outer loop
      vertex -7.25 -4.50481 0
      vertex 9.78148 5.92088 0
      vertex -2.1883 -1.70226 0
    endloop
  endfacet
  facet normal 0 0 -1
    outer loop
      vertex -0.90983 -3.12215 0
      vertex -7.25 -4.50481 0
      vertex -2.1883 -1.70226 0
    endloop
  endfacet
  facet normal 0 0 -1
    outer loop
      vertex 1.04529 -1.94522 0
      vertex 7.95471 0.945219 0
      vertex 2.1883 -1.70226 0
    endloop
  endfacet
  facet normal 0 0 -1
    outer loop
      vertex 12.0902 0.510565 0
      vertex 14 -0.339746 0
      vertex 0 -4.69802 0
    endloop
  endfacet
  facet normal 0 0 -1
    outer loop
      vertex -1.04529 -1.94522 0
      vertex 8.09017 2.12215 0
      vertex 1.04529 -1.94522 0
    endloop
  endfacet
  facet normal 0 0 -1
    outer loop
      vertex 10.0453 0.945219 0
      vertex 12.0902 0.510565 0
      vertex 0.90983 -3.12215 0
    endloop
  endfacet
  facet normal 0 0 -1
    outer loop
      vertex 7.95471 0.945219 0
      vertex 10.0453 0.945219 0
      vertex 2.1883 -1.70226 0
    endloop
  endfacet
  facet normal 0 0 -1
    outer loop
      vertex -9.05886 -3.75556 0
      vertex 9.78148 5.92088 0
      vertex -7.25 -4.50481 0
    endloop
  endfacet
  facet normal 0 0 -1
    outer loop
      vertex -5.3033 16.3033 0
      vertex -5 16.6603 0
      vertex -4.61434 16.832 0
    endloop
  endfacet
  facet normal 0 0 -1
    outer loop
      vertex 0.90983 -3.12215 0
      vertex 12.0902 0.510565 0
      vertex 0 -4.69802 0
    endloop
  endfacet
  facet normal 0 0 -1
    outer loop
      vertex -7.25 -4.50481 0
      vertex -0.90983 -3.12215 0
      vertex -5.6967 -5.6967 0
    endloop
  endfacet
  facet normal -0.994522 0.104528 0
    outer loop
      vertex -19 -9 0
      vertex -19 -9 2.5
      vertex -18.7815 -6.92088 0
    endloop
  endfacet
  facet normal -0.994522 0.104528 0
    outer loop
      vertex -18.7815 -6.92088 0
      vertex -19 -9 2.5
      vertex -18.7815 -6.92088 2.5
    endloop
  endfacet
  facet normal -0.994522 -0.104528 0
    outer loop
      vertex -19 -9 0
      vertex -18.7815 -11.0791 0
      vertex -19 -9 2.5
    endloop
  endfacet
  facet normal -0.994522 -0.104528 0
    outer loop
      vertex -19 -9 2.5
      vertex -18.7815 -11.0791 0
      vertex -18.7815 -11.0791 2.5
    endloop
  endfacet
  facet normal -0.951057 -0.309017 0
    outer loop
      vertex -18.7815 -11.0791 0
      vertex -18.2907 -12.5894 0
      vertex -18.7815 -11.0791 2.5
    endloop
  endfacet
  facet normal -0.951057 -0.309017 0
    outer loop
      vertex -18.7815 -11.0791 2.5
      vertex -18.2907 -12.5894 0
      vertex -18.2907 -12.5894 2.5
    endloop
  endfacet
  facet normal 0.991445 0.130526 0
    outer loop
      vertex -18.5 -11 2.5
      vertex -18.2907 -12.5894 2.5
      vertex -18.2907 -12.5894 0
    endloop
  endfacet
  facet normal 0.991445 0.130526 0
    outer loop
      vertex -18.5 -11 0
      vertex -18.5 -11 2.5
      vertex -18.2907 -12.5894 0
    endloop
  endfacet
  facet normal 0.991445 -0.130526 0
    outer loop
      vertex -18.2444 -9.05886 0
      vertex -18.2444 -9.05886 2.5
      vertex -18.5 -11 2.5
    endloop
  endfacet
  facet normal 0.991445 -0.130526 0
    outer loop
      vertex -18.5 -11 0
      vertex -18.2444 -9.05886 0
      vertex -18.5 -11 2.5
    endloop
  endfacet
  facet normal 0.92388 -0.382683 0
    outer loop
      vertex -17.4952 -7.25 0
      vertex -17.4952 -7.25 2.5
      vertex -18.2444 -9.05886 2.5
    endloop
  endfacet
  facet normal 0.92388 -0.382683 0
    outer loop
      vertex -18.2444 -9.05886 0
      vertex -17.4952 -7.25 0
      vertex -18.2444 -9.05886 2.5
    endloop
  endfacet
  facet normal 0.793353 -0.608762 0
    outer loop
      vertex -16.3033 -5.6967 0
      vertex -16.3033 -5.6967 2.5
      vertex -17.4952 -7.25 2.5
    endloop
  endfacet
  facet normal 0.793353 -0.608762 0
    outer loop
      vertex -17.4952 -7.25 0
      vertex -16.3033 -5.6967 0
      vertex -17.4952 -7.25 2.5
    endloop
  endfacet
  facet normal 0.608762 -0.793353 0
    outer loop
      vertex -14.75 -4.50481 0
      vertex -14.75 -4.50481 2.5
      vertex -16.3033 -5.6967 2.5
    endloop
  endfacet
  facet normal 0.608762 -0.793353 0
    outer loop
      vertex -16.3033 -5.6967 0
      vertex -14.75 -4.50481 0
      vertex -16.3033 -5.6967 2.5
    endloop
  endfacet
  facet normal 0.382683 -0.92388 0
    outer loop
      vertex -12.9411 -3.75556 0
      vertex -12.9411 -3.75556 2.5
      vertex -14.75 -4.50481 2.5
    endloop
  endfacet
  facet normal 0.382683 -0.92388 0
    outer loop
      vertex -14.75 -4.50481 0
      vertex -12.9411 -3.75556 0
      vertex -14.75 -4.50481 2.5
    endloop
  endfacet
  facet normal 0.130526 -0.991445 0
    outer loop
      vertex -11 -3.5 0
      vertex -11 -3.5 2.5
      vertex -12.9411 -3.75556 2.5
    endloop
  endfacet
  facet normal 0.130526 -0.991445 0
    outer loop
      vertex -12.9411 -3.75556 0
      vertex -11 -3.5 0
      vertex -12.9411 -3.75556 2.5
    endloop
  endfacet
  facet normal -0.130526 -0.991445 0
    outer loop
      vertex -9.05886 -3.75556 0
      vertex -9.05886 -3.75556 2.5
      vertex -11 -3.5 2.5
    endloop
  endfacet
  facet normal -0.130526 -0.991445 0
    outer loop
      vertex -11 -3.5 0
      vertex -9.05886 -3.75556 0
      vertex -11 -3.5 2.5
    endloop
  endfacet
  facet normal -0.382683 -0.92388 0
    outer loop
      vertex -7.25 -4.50481 0
      vertex -7.25 -4.50481 2.5
      vertex -9.05886 -3.75556 2.5
    endloop
  endfacet
  facet normal -0.382683 -0.92388 0
    outer loop
      vertex -9.05886 -3.75556 0
      vertex -7.25 -4.50481 0
      vertex -9.05886 -3.75556 2.5
    endloop
  endfacet
  facet normal -0.608762 -0.793353 0
    outer loop
      vertex -5.6967 -5.6967 0
      vertex -5.6967 -5.6967 2.5
      vertex -7.25 -4.50481 2.5
    endloop
  endfacet
  facet normal -0.608762 -0.793353 0
    outer loop
      vertex -7.25 -4.50481 0
      vertex -5.6967 -5.6967 0
      vertex -7.25 -4.50481 2.5
    endloop
  endfacet
  facet normal -0.793353 -0.608762 0
    outer loop
      vertex -4.50481 -7.25 2.5
      vertex -5.6967 -5.6967 2.5
      vertex -4.50481 -7.25 0
    endloop
  endfacet
  facet normal -0.793353 -0.608762 0
    outer loop
      vertex -4.50481 -7.25 0
      vertex -5.6967 -5.6967 2.5
      vertex -5.6967 -5.6967 0
    endloop
  endfacet
  facet normal -0.92388 -0.382683 0
    outer loop
      vertex -3.75556 -9.05886 2.5
      vertex -4.50481 -7.25 2.5
      vertex -3.75556 -9.05886 0
    endloop
  endfacet
  facet normal -0.92388 -0.382683 0
    outer loop
      vertex -3.75556 -9.05886 0
      vertex -4.50481 -7.25 2.5
      vertex -4.50481 -7.25 0
    endloop
  endfacet
  facet normal -0.991445 -0.130526 0
    outer loop
      vertex -3.5 -11 2.5
      vertex -3.75556 -9.05886 2.5
      vertex -3.5 -11 0
    endloop
  endfacet
  facet normal -0.991445 -0.130526 0
    outer loop
      vertex -3.5 -11 0
      vertex -3.75556 -9.05886 2.5
      vertex -3.75556 -9.05886 0
    endloop
  endfacet
  facet normal -0.991445 0.130526 0
    outer loop
      vertex -3.5 -11 2.5
      vertex -3.5 -11 0
      vertex -3.75556 -12.9411 2.5
    endloop
  endfacet
  facet normal -0.991445 0.130526 0
    outer loop
      vertex -3.75556 -12.9411 2.5
      vertex -3.5 -11 0
      vertex -3.75556 -12.9411 0
    endloop
  endfacet
  facet normal -0.92388 0.382683 0
    outer loop
      vertex -3.75556 -12.9411 2.5
      vertex -3.75556 -12.9411 0
      vertex -4.50481 -14.75 2.5
    endloop
  endfacet
  facet normal -0.92388 0.382683 0
    outer loop
      vertex -4.50481 -14.75 2.5
      vertex -3.75556 -12.9411 0
      vertex -4.50481 -14.75 0
    endloop
  endfacet
  facet normal -0.793353 0.608762 0
    outer loop
      vertex -4.50481 -14.75 2.5
      vertex -4.50481 -14.75 0
      vertex -5.6967 -16.3033 2.5
    endloop
  endfacet
  facet normal -0.793353 0.608762 0
    outer loop
      vertex -5.6967 -16.3033 2.5
      vertex -4.50481 -14.75 0
      vertex -5.6967 -16.3033 0
    endloop
  endfacet
  facet normal -0.608762 0.793353 0
    outer loop
      vertex -5.6967 -16.3033 2.5
      vertex -5.6967 -16.3033 0
      vertex -7.25 -17.4952 2.5
    endloop
  endfacet
  facet normal -0.608762 0.793353 0
    outer loop
      vertex -7.25 -17.4952 2.5
      vertex -5.6967 -16.3033 0
      vertex -7.25 -17.4952 0
    endloop
  endfacet
  facet normal -0.382683 0.92388 0
    outer loop
      vertex -7.25 -17.4952 2.5
      vertex -7.25 -17.4952 0
      vertex -9.05886 -18.2444 2.5
    endloop
  endfacet
  facet normal -0.382683 0.92388 0
    outer loop
      vertex -9.05886 -18.2444 2.5
      vertex -7.25 -17.4952 0
      vertex -9.05886 -18.2444 0
    endloop
  endfacet
  facet normal -0.130526 0.991445 0
    outer loop
      vertex -9.05886 -18.2444 2.5
      vertex -9.05886 -18.2444 0
      vertex -11 -18.5 2.5
    endloop
  endfacet
  facet normal -0.130526 0.991445 0
    outer loop
      vertex -11 -18.5 2.5
      vertex -9.05886 -18.2444 0
      vertex -11 -18.5 0
    endloop
  endfacet
  facet normal 0.130526 0.991445 0
    outer loop
      vertex -11 -18.5 2.5
      vertex -11 -18.5 0
      vertex -12.5816 -18.2918 2.5
    endloop
  endfacet
  facet normal 0.130526 0.991445 0
    outer loop
      vertex -12.5816 -18.2918 2.5
      vertex -11 -18.5 0
      vertex -12.5816 -18.2918 0
    endloop
  endfacet
  facet normal -0.406737 -0.913545 0
    outer loop
      vertex -12.5816 -18.2918 2.5
      vertex -12.5816 -18.2918 0
      vertex -12.0902 -18.5106 0
    endloop
  endfacet
  facet normal -0.406737 -0.913545 0
    outer loop
      vertex -12.0902 -18.5106 2.5
      vertex -12.5816 -18.2918 2.5
      vertex -12.0902 -18.5106 0
    endloop
  endfacet
  facet normal -0.207912 -0.978148 0
    outer loop
      vertex -12.0902 -18.5106 2.5
      vertex -12.0902 -18.5106 0
      vertex -10.0453 -18.9452 0
    endloop
  endfacet
  facet normal -0.207912 -0.978148 0
    outer loop
      vertex -10.0453 -18.9452 2.5
      vertex -12.0902 -18.5106 2.5
      vertex -10.0453 -18.9452 0
    endloop
  endfacet
  facet normal 0 -1 0
    outer loop
      vertex -10.0453 -18.9452 2.5
      vertex -10.0453 -18.9452 0
      vertex -7.95471 -18.9452 0
    endloop
  endfacet
  facet normal 0 -1 0
    outer loop
      vertex -7.95471 -18.9452 2.5
      vertex -10.0453 -18.9452 2.5
      vertex -7.95471 -18.9452 0
    endloop
  endfacet
  facet normal 0.207912 -0.978148 0
    outer loop
      vertex -7.95471 -18.9452 2.5
      vertex -7.95471 -18.9452 0
      vertex -5.90983 -18.5106 0
    endloop
  endfacet
  facet normal 0.207912 -0.978148 0
    outer loop
      vertex -5.90983 -18.5106 2.5
      vertex -7.95471 -18.9452 2.5
      vertex -5.90983 -18.5106 0
    endloop
  endfacet
  facet normal 0.406737 -0.913545 0
    outer loop
      vertex -5.90983 -18.5106 2.5
      vertex -5.90983 -18.5106 0
      vertex -4 -17.6603 0
    endloop
  endfacet
  facet normal 0.406737 -0.913545 0
    outer loop
      vertex -4 -17.6603 2.5
      vertex -5.90983 -18.5106 2.5
      vertex -4 -17.6603 0
    endloop
  endfacet
  facet normal 0.587785 -0.809017 0
    outer loop
      vertex -4 -17.6603 2.5
      vertex -4 -17.6603 0
      vertex -2.30869 -16.4314 0
    endloop
  endfacet
  facet normal 0.587785 -0.809017 0
    outer loop
      vertex -2.30869 -16.4314 2.5
      vertex -4 -17.6603 2.5
      vertex -2.30869 -16.4314 0
    endloop
  endfacet
  facet normal 0.743145 -0.669131 0
    outer loop
      vertex -2.30869 -16.4314 2.5
      vertex -2.30869 -16.4314 0
      vertex -0.90983 -14.8779 0
    endloop
  endfacet
  facet normal 0.743145 -0.669131 0
    outer loop
      vertex -0.90983 -14.8779 2.5
      vertex -2.30869 -16.4314 2.5
      vertex -0.90983 -14.8779 0
    endloop
  endfacet
  facet normal 0.866025 -0.5 0
    outer loop
      vertex -0.90983 -14.8779 2.5
      vertex -0.90983 -14.8779 0
      vertex 0 -13.302 0
    endloop
  endfacet
  facet normal 0.866025 -0.5 0
    outer loop
      vertex 0 -13.302 2.5
      vertex -0.90983 -14.8779 2.5
      vertex 0 -13.302 0
    endloop
  endfacet
  facet normal -0.866025 -0.5 0
    outer loop
      vertex 0 -13.302 0
      vertex 0.90983 -14.8779 0
      vertex 0 -13.302 2.5
    endloop
  endfacet
  facet normal -0.866025 -0.5 0
    outer loop
      vertex 0 -13.302 2.5
      vertex 0.90983 -14.8779 0
      vertex 0.90983 -14.8779 2.5
    endloop
  endfacet
  facet normal -0.743145 -0.669131 0
    outer loop
      vertex 0.90983 -14.8779 0
      vertex 2.30869 -16.4314 0
      vertex 0.90983 -14.8779 2.5
    endloop
  endfacet
  facet normal -0.743145 -0.669131 0
    outer loop
      vertex 0.90983 -14.8779 2.5
      vertex 2.30869 -16.4314 0
      vertex 2.30869 -16.4314 2.5
    endloop
  endfacet
  facet normal -0.587785 -0.809017 0
    outer loop
      vertex 2.30869 -16.4314 2.5
      vertex 2.30869 -16.4314 0
      vertex 4 -17.6603 0
    endloop
  endfacet
  facet normal -0.587785 -0.809017 0
    outer loop
      vertex 4 -17.6603 2.5
      vertex 2.30869 -16.4314 2.5
      vertex 4 -17.6603 0
    endloop
  endfacet
  facet normal -0.406737 -0.913545 0
    outer loop
      vertex 4 -17.6603 2.5
      vertex 4 -17.6603 0
      vertex 5.90983 -18.5106 0
    endloop
  endfacet
  facet normal -0.406737 -0.913545 0
    outer loop
      vertex 5.90983 -18.5106 2.5
      vertex 4 -17.6603 2.5
      vertex 5.90983 -18.5106 0
    endloop
  endfacet
  facet normal -0.207912 -0.978148 0
    outer loop
      vertex 5.90983 -18.5106 2.5
      vertex 5.90983 -18.5106 0
      vertex 7.95471 -18.9452 0
    endloop
  endfacet
  facet normal -0.207912 -0.978148 0
    outer loop
      vertex 7.95471 -18.9452 2.5
      vertex 5.90983 -18.5106 2.5
      vertex 7.95471 -18.9452 0
    endloop
  endfacet
  facet normal 0 -1 0
    outer loop
      vertex 7.95471 -18.9452 2.5
      vertex 7.95471 -18.9452 0
      vertex 10.0453 -18.9452 0
    endloop
  endfacet
  facet normal 0 -1 0
    outer loop
      vertex 10.0453 -18.9452 2.5
      vertex 7.95471 -18.9452 2.5
      vertex 10.0453 -18.9452 0
    endloop
  endfacet
  facet normal 0.207912 -0.978148 0
    outer loop
      vertex 10.0453 -18.9452 2.5
      vertex 10.0453 -18.9452 0
      vertex 12.0902 -18.5106 0
    endloop
  endfacet
  facet normal 0.207912 -0.978148 0
    outer loop
      vertex 12.0902 -18.5106 2.5
      vertex 10.0453 -18.9452 2.5
      vertex 12.0902 -18.5106 0
    endloop
  endfacet
  facet normal 0.406737 -0.913545 0
    outer loop
      vertex 12.0902 -18.5106 2.5
      vertex 12.0902 -18.5106 0
      vertex 12.5816 -18.2918 0
    endloop
  endfacet
  facet normal 0.406737 -0.913545 0
    outer loop
      vertex 12.5816 -18.2918 2.5
      vertex 12.0902 -18.5106 2.5
      vertex 12.5816 -18.2918 0
    endloop
  endfacet
  facet normal -0.130526 0.991445 0
    outer loop
      vertex 12.5816 -18.2918 2.5
      vertex 12.5816 -18.2918 0
      vertex 11 -18.5 2.5
    endloop
  endfacet
  facet normal -0.130526 0.991445 0
    outer loop
      vertex 11 -18.5 2.5
      vertex 12.5816 -18.2918 0
      vertex 11 -18.5 0
    endloop
  endfacet
  facet normal 0.130526 0.991445 0
    outer loop
      vertex 11 -18.5 2.5
      vertex 11 -18.5 0
      vertex 9.05886 -18.2444 2.5
    endloop
  endfacet
  facet normal 0.130526 0.991445 0
    outer loop
      vertex 9.05886 -18.2444 2.5
      vertex 11 -18.5 0
      vertex 9.05886 -18.2444 0
    endloop
  endfacet
  facet normal 0.382683 0.92388 0
    outer loop
      vertex 9.05886 -18.2444 2.5
      vertex 9.05886 -18.2444 0
      vertex 7.25 -17.4952 2.5
    endloop
  endfacet
  facet normal 0.382683 0.92388 0
    outer loop
      vertex 7.25 -17.4952 2.5
      vertex 9.05886 -18.2444 0
      vertex 7.25 -17.4952 0
    endloop
  endfacet
  facet normal 0.608762 0.793353 0
    outer loop
      vertex 7.25 -17.4952 2.5
      vertex 7.25 -17.4952 0
      vertex 5.6967 -16.3033 2.5
    endloop
  endfacet
  facet normal 0.608762 0.793353 0
    outer loop
      vertex 5.6967 -16.3033 2.5
      vertex 7.25 -17.4952 0
      vertex 5.6967 -16.3033 0
    endloop
  endfacet
  facet normal 0.793353 0.608762 0
    outer loop
      vertex 4.50481 -14.75 2.5
      vertex 5.6967 -16.3033 2.5
      vertex 5.6967 -16.3033 0
    endloop
  endfacet
  facet normal 0.793353 0.608762 0
    outer loop
      vertex 4.50481 -14.75 0
      vertex 4.50481 -14.75 2.5
      vertex 5.6967 -16.3033 0
    endloop
  endfacet
  facet normal 0.92388 0.382683 0
    outer loop
      vertex 3.75556 -12.9411 2.5
      vertex 4.50481 -14.75 2.5
      vertex 4.50481 -14.75 0
    endloop
  endfacet
  facet normal 0.92388 0.382683 0
    outer loop
      vertex 3.75556 -12.9411 0
      vertex 3.75556 -12.9411 2.5
      vertex 4.50481 -14.75 0
    endloop
  endfacet
  facet normal 0.991445 0.130526 0
    outer loop
      vertex 3.5 -11 2.5
      vertex 3.75556 -12.9411 2.5
      vertex 3.75556 -12.9411 0
    endloop
  endfacet
  facet normal 0.991445 0.130526 0
    outer loop
      vertex 3.5 -11 0
      vertex 3.5 -11 2.5
      vertex 3.75556 -12.9411 0
    endloop
  endfacet
  facet normal 0.991445 -0.130526 0
    outer loop
      vertex 3.75556 -9.05886 0
      vertex 3.75556 -9.05886 2.5
      vertex 3.5 -11 2.5
    endloop
  endfacet
  facet normal 0.991445 -0.130526 0
    outer loop
      vertex 3.5 -11 0
      vertex 3.75556 -9.05886 0
      vertex 3.5 -11 2.5
    endloop
  endfacet
  facet normal 0.92388 -0.382683 0
    outer loop
      vertex 4.50481 -7.25 0
      vertex 4.50481 -7.25 2.5
      vertex 3.75556 -9.05886 2.5
    endloop
  endfacet
  facet normal 0.92388 -0.382683 0
    outer loop
      vertex 3.75556 -9.05886 0
      vertex 4.50481 -7.25 0
      vertex 3.75556 -9.05886 2.5
    endloop
  endfacet
  facet normal 0.793353 -0.608762 0
    outer loop
      vertex 5.6967 -5.6967 0
      vertex 5.6967 -5.6967 2.5
      vertex 4.50481 -7.25 2.5
    endloop
  endfacet
  facet normal 0.793353 -0.608762 0
    outer loop
      vertex 4.50481 -7.25 0
      vertex 5.6967 -5.6967 0
      vertex 4.50481 -7.25 2.5
    endloop
  endfacet
  facet normal 0.608762 -0.793353 0
    outer loop
      vertex 7.25 -4.50481 0
      vertex 7.25 -4.50481 2.5
      vertex 5.6967 -5.6967 2.5
    endloop
  endfacet
  facet normal 0.608762 -0.793353 0
    outer loop
      vertex 5.6967 -5.6967 0
      vertex 7.25 -4.50481 0
      vertex 5.6967 -5.6967 2.5
    endloop
  endfacet
  facet normal 0.382683 -0.92388 0
    outer loop
      vertex 9.05886 -3.75556 0
      vertex 9.05886 -3.75556 2.5
      vertex 7.25 -4.50481 2.5
    endloop
  endfacet
  facet normal 0.382683 -0.92388 0
    outer loop
      vertex 7.25 -4.50481 0
      vertex 9.05886 -3.75556 0
      vertex 7.25 -4.50481 2.5
    endloop
  endfacet
  facet normal 0.130526 -0.991445 0
    outer loop
      vertex 11 -3.5 0
      vertex 11 -3.5 2.5
      vertex 9.05886 -3.75556 2.5
    endloop
  endfacet
  facet normal 0.130526 -0.991445 0
    outer loop
      vertex 9.05886 -3.75556 0
      vertex 11 -3.5 0
      vertex 9.05886 -3.75556 2.5
    endloop
  endfacet
  facet normal -0.130526 -0.991445 0
    outer loop
      vertex 12.9411 -3.75556 0
      vertex 12.9411 -3.75556 2.5
      vertex 11 -3.5 2.5
    endloop
  endfacet
  facet normal -0.130526 -0.991445 0
    outer loop
      vertex 11 -3.5 0
      vertex 12.9411 -3.75556 0
      vertex 11 -3.5 2.5
    endloop
  endfacet
  facet normal -0.382683 -0.92388 0
    outer loop
      vertex 14.75 -4.50481 0
      vertex 14.75 -4.50481 2.5
      vertex 12.9411 -3.75556 2.5
    endloop
  endfacet
  facet normal -0.382683 -0.92388 0
    outer loop
      vertex 12.9411 -3.75556 0
      vertex 14.75 -4.50481 0
      vertex 12.9411 -3.75556 2.5
    endloop
  endfacet
  facet normal -0.608762 -0.793353 0
    outer loop
      vertex 16.3033 -5.6967 0
      vertex 16.3033 -5.6967 2.5
      vertex 14.75 -4.50481 2.5
    endloop
  endfacet
  facet normal -0.608762 -0.793353 0
    outer loop
      vertex 14.75 -4.50481 0
      vertex 16.3033 -5.6967 0
      vertex 14.75 -4.50481 2.5
    endloop
  endfacet
  facet normal -0.793353 -0.608762 0
    outer loop
      vertex 17.4952 -7.25 2.5
      vertex 16.3033 -5.6967 2.5
      vertex 17.4952 -7.25 0
    endloop
  endfacet
  facet normal -0.793353 -0.608762 0
    outer loop
      vertex 17.4952 -7.25 0
      vertex 16.3033 -5.6967 2.5
      vertex 16.3033 -5.6967 0
    endloop
  endfacet
  facet normal -0.92388 -0.382683 0
    outer loop
      vertex 18.2444 -9.05886 2.5
      vertex 17.4952 -7.25 2.5
      vertex 18.2444 -9.05886 0
    endloop
  endfacet
  facet normal -0.92388 -0.382683 0
    outer loop
      vertex 18.2444 -9.05886 0
      vertex 17.4952 -7.25 2.5
      vertex 17.4952 -7.25 0
    endloop
  endfacet
  facet normal -0.991445 -0.130526 0
    outer loop
      vertex 18.5 -11 2.5
      vertex 18.2444 -9.05886 2.5
      vertex 18.5 -11 0
    endloop
  endfacet
  facet normal -0.991445 -0.130526 0
    outer loop
      vertex 18.5 -11 0
      vertex 18.2444 -9.05886 2.5
      vertex 18.2444 -9.05886 0
    endloop
  endfacet
  facet normal -0.991445 0.130526 0
    outer loop
      vertex 18.5 -11 2.5
      vertex 18.5 -11 0
      vertex 18.2907 -12.5894 2.5
    endloop
  endfacet
  facet normal -0.991445 0.130526 0
    outer loop
      vertex 18.2907 -12.5894 2.5
      vertex 18.5 -11 0
      vertex 18.2907 -12.5894 0
    endloop
  endfacet
  facet normal 0.951057 -0.309017 0
    outer loop
      vertex 18.2907 -12.5894 2.5
      vertex 18.2907 -12.5894 0
      vertex 18.7815 -11.0791 0
    endloop
  endfacet
  facet normal 0.951057 -0.309017 0
    outer loop
      vertex 18.7815 -11.0791 2.5
      vertex 18.2907 -12.5894 2.5
      vertex 18.7815 -11.0791 0
    endloop
  endfacet
  facet normal 0.994522 -0.104528 0
    outer loop
      vertex 18.7815 -11.0791 2.5
      vertex 18.7815 -11.0791 0
      vertex 19 -9 0
    endloop
  endfacet
  facet normal 0.994522 -0.104528 0
    outer loop
      vertex 19 -9 2.5
      vertex 18.7815 -11.0791 2.5
      vertex 19 -9 0
    endloop
  endfacet
  facet normal 0.994522 0.104528 0
    outer loop
      vertex 19 -9 0
      vertex 18.7815 -6.92088 0
      vertex 18.7815 -6.92088 2.5
    endloop
  endfacet
  facet normal 0.994522 0.104528 0
    outer loop
      vertex 19 -9 2.5
      vertex 19 -9 0
      vertex 18.7815 -6.92088 2.5
    endloop
  endfacet
  facet normal 0.951057 0.309017 0
    outer loop
      vertex 18.7815 -6.92088 0
      vertex 18.1355 -4.93263 0
      vertex 18.1355 -4.93263 2.5
    endloop
  endfacet
  facet normal 0.951057 0.309017 0
    outer loop
      vertex 18.7815 -6.92088 2.5
      vertex 18.7815 -6.92088 0
      vertex 18.1355 -4.93263 2.5
    endloop
  endfacet
  facet normal 0.866025 0.5 0
    outer loop
      vertex 18.1355 -4.93263 0
      vertex 17.0902 -3.12215 0
      vertex 17.0902 -3.12215 2.5
    endloop
  endfacet
  facet normal 0.866025 0.5 0
    outer loop
      vertex 18.1355 -4.93263 2.5
      vertex 18.1355 -4.93263 0
      vertex 17.0902 -3.12215 2.5
    endloop
  endfacet
  facet normal 0.743145 0.669131 0
    outer loop
      vertex 17.0902 -3.12215 0
      vertex 15.6913 -1.56855 0
      vertex 15.6913 -1.56855 2.5
    endloop
  endfacet
  facet normal 0.743145 0.669131 0
    outer loop
      vertex 17.0902 -3.12215 2.5
      vertex 17.0902 -3.12215 0
      vertex 15.6913 -1.56855 2.5
    endloop
  endfacet
  facet normal 0.587785 0.809017 0
    outer loop
      vertex 14 -0.339746 0
      vertex 14 -0.339746 2.5
      vertex 15.6913 -1.56855 0
    endloop
  endfacet
  facet normal 0.587785 0.809017 0
    outer loop
      vertex 15.6913 -1.56855 0
      vertex 14 -0.339746 2.5
      vertex 15.6913 -1.56855 2.5
    endloop
  endfacet
  facet normal 0.406737 0.913545 0
    outer loop
      vertex 12.0902 0.510565 0
      vertex 12.0902 0.510565 2.5
      vertex 14 -0.339746 0
    endloop
  endfacet
  facet normal 0.406737 0.913545 0
    outer loop
      vertex 14 -0.339746 0
      vertex 12.0902 0.510565 2.5
      vertex 14 -0.339746 2.5
    endloop
  endfacet
  facet normal 0.207912 0.978148 0
    outer loop
      vertex 10.0453 0.945219 0
      vertex 10.0453 0.945219 2.5
      vertex 12.0902 0.510565 0
    endloop
  endfacet
  facet normal 0.207912 0.978148 0
    outer loop
      vertex 12.0902 0.510565 0
      vertex 10.0453 0.945219 2.5
      vertex 12.0902 0.510565 2.5
    endloop
  endfacet
  facet normal 0 1 0
    outer loop
      vertex 7.95471 0.945219 0
      vertex 7.95471 0.945219 2.5
      vertex 10.0453 0.945219 0
    endloop
  endfacet
  facet normal 0 1 0
    outer loop
      vertex 10.0453 0.945219 0
      vertex 7.95471 0.945219 2.5
      vertex 10.0453 0.945219 2.5
    endloop
  endfacet
  facet normal -0.207912 0.978148 0
    outer loop
      vertex 6.8117 0.702264 0
      vertex 6.8117 0.702264 2.5
      vertex 7.95471 0.945219 0
    endloop
  endfacet
  facet normal -0.207912 0.978148 0
    outer loop
      vertex 7.95471 0.945219 0
      vertex 6.8117 0.702264 2.5
      vertex 7.95471 0.945219 2.5
    endloop
  endfacet
  facet normal 0.743145 -0.669131 0
    outer loop
      vertex 6.8117 0.702264 2.5
      vertex 6.8117 0.702264 0
      vertex 8.09017 2.12215 0
    endloop
  endfacet
  facet normal 0.743145 -0.669131 0
    outer loop
      vertex 8.09017 2.12215 2.5
      vertex 6.8117 0.702264 2.5
      vertex 8.09017 2.12215 0
    endloop
  endfacet
  facet normal 0.866025 -0.5 0
    outer loop
      vertex 8.09017 2.12215 2.5
      vertex 8.09017 2.12215 0
      vertex 9.13546 3.93263 0
    endloop
  endfacet
  facet normal 0.866025 -0.5 0
    outer loop
      vertex 9.13546 3.93263 2.5
      vertex 8.09017 2.12215 2.5
      vertex 9.13546 3.93263 0
    endloop
  endfacet
  facet normal 0.951057 -0.309017 0
    outer loop
      vertex 9.13546 3.93263 2.5
      vertex 9.13546 3.93263 0
      vertex 9.78148 5.92088 0
    endloop
  endfacet
  facet normal 0.951057 -0.309017 0
    outer loop
      vertex 9.78148 5.92088 2.5
      vertex 9.13546 3.93263 2.5
      vertex 9.78148 5.92088 0
    endloop
  endfacet
  facet normal 0.994522 -0.104528 0
    outer loop
      vertex 9.78148 5.92088 2.5
      vertex 9.78148 5.92088 0
      vertex 10 8 0
    endloop
  endfacet
  facet normal 0.994522 -0.104528 0
    outer loop
      vertex 10 8 2.5
      vertex 9.78148 5.92088 2.5
      vertex 10 8 0
    endloop
  endfacet
  facet normal 0.994522 0.104528 0
    outer loop
      vertex 10 8 0
      vertex 9.78148 10.0791 0
      vertex 9.78148 10.0791 2.5
    endloop
  endfacet
  facet normal 0.994522 0.104528 0
    outer loop
      vertex 10 8 2.5
      vertex 10 8 0
      vertex 9.78148 10.0791 2.5
    endloop
  endfacet
  facet normal 0.951057 0.309017 0
    outer loop
      vertex 9.78148 10.0791 0
      vertex 9.13546 12.0674 0
      vertex 9.13546 12.0674 2.5
    endloop
  endfacet
  facet normal 0.951057 0.309017 0
    outer loop
      vertex 9.78148 10.0791 2.5
      vertex 9.78148 10.0791 0
      vertex 9.13546 12.0674 2.5
    endloop
  endfacet
  facet normal 0.866025 0.5 0
    outer loop
      vertex 9.13546 12.0674 0
      vertex 8.09017 13.8779 0
      vertex 8.09017 13.8779 2.5
    endloop
  endfacet
  facet normal 0.866025 0.5 0
    outer loop
      vertex 9.13546 12.0674 2.5
      vertex 9.13546 12.0674 0
      vertex 8.09017 13.8779 2.5
    endloop
  endfacet
  facet normal 0.743145 0.669131 0
    outer loop
      vertex 8.09017 13.8779 0
      vertex 6.69131 15.4314 0
      vertex 6.69131 15.4314 2.5
    endloop
  endfacet
  facet normal 0.743145 0.669131 0
    outer loop
      vertex 8.09017 13.8779 2.5
      vertex 8.09017 13.8779 0
      vertex 6.69131 15.4314 2.5
    endloop
  endfacet
  facet normal 0.587785 0.809017 0
    outer loop
      vertex 5 16.6603 0
      vertex 5 16.6603 2.5
      vertex 6.69131 15.4314 0
    endloop
  endfacet
  facet normal 0.587785 0.809017 0
    outer loop
      vertex 6.69131 15.4314 0
      vertex 5 16.6603 2.5
      vertex 6.69131 15.4314 2.5
    endloop
  endfacet
  facet normal 0.406737 0.913545 0
    outer loop
      vertex 4.61434 16.832 0
      vertex 4.61434 16.832 2.5
      vertex 5 16.6603 0
    endloop
  endfacet
  facet normal 0.406737 0.913545 0
    outer loop
      vertex 5 16.6603 0
      vertex 4.61434 16.832 2.5
      vertex 5 16.6603 2.5
    endloop
  endfacet
  facet normal -0.608762 -0.793353 0
    outer loop
      vertex 5.3033 16.3033 0
      vertex 5.3033 16.3033 2.5
      vertex 4.61434 16.832 2.5
    endloop
  endfacet
  facet normal -0.608762 -0.793353 0
    outer loop
      vertex 4.61434 16.832 0
      vertex 5.3033 16.3033 0
      vertex 4.61434 16.832 2.5
    endloop
  endfacet
  facet normal -0.793353 -0.608762 0
    outer loop
      vertex 6.49519 14.75 2.5
      vertex 5.3033 16.3033 2.5
      vertex 6.49519 14.75 0
    endloop
  endfacet
  facet normal -0.793353 -0.608762 0
    outer loop
      vertex 6.49519 14.75 0
      vertex 5.3033 16.3033 2.5
      vertex 5.3033 16.3033 0
    endloop
  endfacet
  facet normal -0.92388 -0.382683 0
    outer loop
      vertex 7.24444 12.9411 2.5
      vertex 6.49519 14.75 2.5
      vertex 7.24444 12.9411 0
    endloop
  endfacet
  facet normal -0.92388 -0.382683 0
    outer loop
      vertex 7.24444 12.9411 0
      vertex 6.49519 14.75 2.5
      vertex 6.49519 14.75 0
    endloop
  endfacet
  facet normal -0.991445 -0.130526 0
    outer loop
      vertex 7.5 11 2.5
      vertex 7.24444 12.9411 2.5
      vertex 7.5 11 0
    endloop
  endfacet
  facet normal -0.991445 -0.130526 0
    outer loop
      vertex 7.5 11 0
      vertex 7.24444 12.9411 2.5
      vertex 7.24444 12.9411 0
    endloop
  endfacet
  facet normal -0.991445 0.130526 0
    outer loop
      vertex 7.5 11 2.5
      vertex 7.5 11 0
      vertex 7.24444 9.05886 2.5
    endloop
  endfacet
  facet normal -0.991445 0.130526 0
    outer loop
      vertex 7.24444 9.05886 2.5
      vertex 7.5 11 0
      vertex 7.24444 9.05886 0
    endloop
  endfacet
  facet normal -0.92388 0.382683 0
    outer loop
      vertex 7.24444 9.05886 2.5
      vertex 7.24444 9.05886 0
      vertex 6.49519 7.25 2.5
    endloop
  endfacet
  facet normal -0.92388 0.382683 0
    outer loop
      vertex 6.49519 7.25 2.5
      vertex 7.24444 9.05886 0
      vertex 6.49519 7.25 0
    endloop
  endfacet
  facet normal -0.793353 0.608762 0
    outer loop
      vertex 6.49519 7.25 2.5
      vertex 6.49519 7.25 0
      vertex 5.3033 5.6967 2.5
    endloop
  endfacet
  facet normal -0.793353 0.608762 0
    outer loop
      vertex 5.3033 5.6967 2.5
      vertex 6.49519 7.25 0
      vertex 5.3033 5.6967 0
    endloop
  endfacet
  facet normal -0.608762 0.793353 0
    outer loop
      vertex 5.3033 5.6967 2.5
      vertex 5.3033 5.6967 0
      vertex 3.75 4.50481 2.5
    endloop
  endfacet
  facet normal -0.608762 0.793353 0
    outer loop
      vertex 3.75 4.50481 2.5
      vertex 5.3033 5.6967 0
      vertex 3.75 4.50481 0
    endloop
  endfacet
  facet normal -0.382683 0.92388 0
    outer loop
      vertex 3.75 4.50481 2.5
      vertex 3.75 4.50481 0
      vertex 1.94114 3.75556 2.5
    endloop
  endfacet
  facet normal -0.382683 0.92388 0
    outer loop
      vertex 1.94114 3.75556 2.5
      vertex 3.75 4.50481 0
      vertex 1.94114 3.75556 0
    endloop
  endfacet
  facet normal -0.130526 0.991445 0
    outer loop
      vertex 1.94114 3.75556 2.5
      vertex 1.94114 3.75556 0
      vertex 0 3.5 2.5
    endloop
  endfacet
  facet normal -0.130526 0.991445 0
    outer loop
      vertex 0 3.5 2.5
      vertex 1.94114 3.75556 0
      vertex 0 3.5 0
    endloop
  endfacet
  facet normal 0.130526 0.991445 0
    outer loop
      vertex 0 3.5 2.5
      vertex 0 3.5 0
      vertex -1.94114 3.75556 2.5
    endloop
  endfacet
  facet normal 0.130526 0.991445 0
    outer loop
      vertex -1.94114 3.75556 2.5
      vertex 0 3.5 0
      vertex -1.94114 3.75556 0
    endloop
  endfacet
  facet normal 0.382683 0.92388 0
    outer loop
      vertex -1.94114 3.75556 2.5
      vertex -1.94114 3.75556 0
      vertex -3.75 4.50481 2.5
    endloop
  endfacet
  facet normal 0.382683 0.92388 0
    outer loop
      vertex -3.75 4.50481 2.5
      vertex -1.94114 3.75556 0
      vertex -3.75 4.50481 0
    endloop
  endfacet
  facet normal 0.608762 0.793353 0
    outer loop
      vertex -3.75 4.50481 2.5
      vertex -3.75 4.50481 0
      vertex -5.3033 5.6967 2.5
    endloop
  endfacet
  facet normal 0.608762 0.793353 0
    outer loop
      vertex -5.3033 5.6967 2.5
      vertex -3.75 4.50481 0
      vertex -5.3033 5.6967 0
    endloop
  endfacet
  facet normal 0.793353 0.608762 0
    outer loop
      vertex -6.49519 7.25 2.5
      vertex -5.3033 5.6967 2.5
      vertex -5.3033 5.6967 0
    endloop
  endfacet
  facet normal 0.793353 0.608762 0
    outer loop
      vertex -6.49519 7.25 0
      vertex -6.49519 7.25 2.5
      vertex -5.3033 5.6967 0
    endloop
  endfacet
  facet normal 0.92388 0.382683 0
    outer loop
      vertex -7.24444 9.05886 2.5
      vertex -6.49519 7.25 2.5
      vertex -6.49519 7.25 0
    endloop
  endfacet
  facet normal 0.92388 0.382683 0
    outer loop
      vertex -7.24444 9.05886 0
      vertex -7.24444 9.05886 2.5
      vertex -6.49519 7.25 0
    endloop
  endfacet
  facet normal 0.991445 0.130526 0
    outer loop
      vertex -7.5 11 2.5
      vertex -7.24444 9.05886 2.5
      vertex -7.24444 9.05886 0
    endloop
  endfacet
  facet normal 0.991445 0.130526 0
    outer loop
      vertex -7.5 11 0
      vertex -7.5 11 2.5
      vertex -7.24444 9.05886 0
    endloop
  endfacet
  facet normal 0.991445 -0.130526 0
    outer loop
      vertex -7.24444 12.9411 0
      vertex -7.24444 12.9411 2.5
      vertex -7.5 11 2.5
    endloop
  endfacet
  facet normal 0.991445 -0.130526 0
    outer loop
      vertex -7.5 11 0
      vertex -7.24444 12.9411 0
      vertex -7.5 11 2.5
    endloop
  endfacet
  facet normal 0.92388 -0.382683 0
    outer loop
      vertex -6.49519 14.75 0
      vertex -6.49519 14.75 2.5
      vertex -7.24444 12.9411 2.5
    endloop
  endfacet
  facet normal 0.92388 -0.382683 0
    outer loop
      vertex -7.24444 12.9411 0
      vertex -6.49519 14.75 0
      vertex -7.24444 12.9411 2.5
    endloop
  endfacet
  facet normal 0.793353 -0.608762 0
    outer loop
      vertex -5.3033 16.3033 0
      vertex -5.3033 16.3033 2.5
      vertex -6.49519 14.75 2.5
    endloop
  endfacet
  facet normal 0.793353 -0.608762 0
    outer loop
      vertex -6.49519 14.75 0
      vertex -5.3033 16.3033 0
      vertex -6.49519 14.75 2.5
    endloop
  endfacet
  facet normal 0.608762 -0.793353 0
    outer loop
      vertex -4.61434 16.832 0
      vertex -4.61434 16.832 2.5
      vertex -5.3033 16.3033 2.5
    endloop
  endfacet
  facet normal 0.608762 -0.793353 0
    outer loop
      vertex -5.3033 16.3033 0
      vertex -4.61434 16.832 0
      vertex -5.3033 16.3033 2.5
    endloop
  endfacet
  facet normal -0.406737 0.913545 0
    outer loop
      vertex -5 16.6603 0
      vertex -5 16.6603 2.5
      vertex -4.61434 16.832 0
    endloop
  endfacet
  facet normal -0.406737 0.913545 0
    outer loop
      vertex -4.61434 16.832 0
      vertex -5 16.6603 2.5
      vertex -4.61434 16.832 2.5
    endloop
  endfacet
  facet normal -0.587785 0.809017 0
    outer loop
      vertex -6.69131 15.4314 0
      vertex -6.69131 15.4314 2.5
      vertex -5 16.6603 0
    endloop
  endfacet
  facet normal -0.587785 0.809017 0
    outer loop
      vertex -5 16.6603 0
      vertex -6.69131 15.4314 2.5
      vertex -5 16.6603 2.5
    endloop
  endfacet
  facet normal -0.743145 0.669131 0
    outer loop
      vertex -8.09017 13.8779 0
      vertex -8.09017 13.8779 2.5
      vertex -6.69131 15.4314 0
    endloop
  endfacet
  facet normal -0.743145 0.669131 0
    outer loop
      vertex -6.69131 15.4314 0
      vertex -8.09017 13.8779 2.5
      vertex -6.69131 15.4314 2.5
    endloop
  endfacet
  facet normal -0.866025 0.5 0
    outer loop
      vertex -9.13546 12.0674 0
      vertex -9.13546 12.0674 2.5
      vertex -8.09017 13.8779 0
    endloop
  endfacet
  facet normal -0.866025 0.5 0
    outer loop
      vertex -8.09017 13.8779 0
      vertex -9.13546 12.0674 2.5
      vertex -8.09017 13.8779 2.5
    endloop
  endfacet
  facet normal -0.951057 0.309017 0
    outer loop
      vertex -9.78148 10.0791 0
      vertex -9.78148 10.0791 2.5
      vertex -9.13546 12.0674 0
    endloop
  endfacet
  facet normal -0.951057 0.309017 0
    outer loop
      vertex -9.13546 12.0674 0
      vertex -9.78148 10.0791 2.5
      vertex -9.13546 12.0674 2.5
    endloop
  endfacet
  facet normal -0.994522 0.104528 0
    outer loop
      vertex -10 8 0
      vertex -10 8 2.5
      vertex -9.78148 10.0791 0
    endloop
  endfacet
  facet normal -0.994522 0.104528 0
    outer loop
      vertex -9.78148 10.0791 0
      vertex -10 8 2.5
      vertex -9.78148 10.0791 2.5
    endloop
  endfacet
  facet normal -0.994522 -0.104528 0
    outer loop
      vertex -10 8 0
      vertex -9.78148 5.92088 0
      vertex -10 8 2.5
    endloop
  endfacet
  facet normal -0.994522 -0.104528 0
    outer loop
      vertex -10 8 2.5
      vertex -9.78148 5.92088 0
      vertex -9.78148 5.92088 2.5
    endloop
  endfacet
  facet normal -0.951057 -0.309017 0
    outer loop
      vertex -9.78148 5.92088 0
      vertex -9.13546 3.93263 0
      vertex -9.78148 5.92088 2.5
    endloop
  endfacet
  facet normal -0.951057 -0.309017 0
    outer loop
      vertex -9.78148 5.92088 2.5
      vertex -9.13546 3.93263 0
      vertex -9.13546 3.93263 2.5
    endloop
  endfacet
  facet normal -0.866025 -0.5 0
    outer loop
      vertex -9.13546 3.93263 0
      vertex -8.09017 2.12215 0
      vertex -9.13546 3.93263 2.5
    endloop
  endfacet
  facet normal -0.866025 -0.5 0
    outer loop
      vertex -9.13546 3.93263 2.5
      vertex -8.09017 2.12215 0
      vertex -8.09017 2.12215 2.5
    endloop
  endfacet
  facet normal -0.743145 -0.669131 0
    outer loop
      vertex -8.09017 2.12215 0
      vertex -6.8117 0.702264 0
      vertex -8.09017 2.12215 2.5
    endloop
  endfacet
  facet normal -0.743145 -0.669131 0
    outer loop
      vertex -8.09017 2.12215 2.5
      vertex -6.8117 0.702264 0
      vertex -6.8117 0.702264 2.5
    endloop
  endfacet
  facet normal 0.207912 0.978148 0
    outer loop
      vertex -7.95471 0.945219 0
      vertex -7.95471 0.945219 2.5
      vertex -6.8117 0.702264 0
    endloop
  endfacet
  facet normal 0.207912 0.978148 0
    outer loop
      vertex -6.8117 0.702264 0
      vertex -7.95471 0.945219 2.5
      vertex -6.8117 0.702264 2.5
    endloop
  endfacet
  facet normal 0 1 0
    outer loop
      vertex -10.0453 0.945219 0
      vertex -10.0453 0.945219 2.5
      vertex -7.95471 0.945219 0
    endloop
  endfacet
  facet normal 0 1 0
    outer loop
      vertex -7.95471 0.945219 0
      vertex -10.0453 0.945219 2.5
      vertex -7.95471 0.945219 2.5
    endloop
  endfacet
  facet normal -0.207912 0.978148 0
    outer loop
      vertex -12.0902 0.510565 0
      vertex -12.0902 0.510565 2.5
      vertex -10.0453 0.945219 0
    endloop
  endfacet
  facet normal -0.207912 0.978148 0
    outer loop
      vertex -10.0453 0.945219 0
      vertex -12.0902 0.510565 2.5
      vertex -10.0453 0.945219 2.5
    endloop
  endfacet
  facet normal -0.406737 0.913545 0
    outer loop
      vertex -14 -0.339746 0
      vertex -14 -0.339746 2.5
      vertex -12.0902 0.510565 0
    endloop
  endfacet
  facet normal -0.406737 0.913545 0
    outer loop
      vertex -12.0902 0.510565 0
      vertex -14 -0.339746 2.5
      vertex -12.0902 0.510565 2.5
    endloop
  endfacet
  facet normal -0.587785 0.809017 0
    outer loop
      vertex -15.6913 -1.56855 0
      vertex -15.6913 -1.56855 2.5
      vertex -14 -0.339746 0
    endloop
  endfacet
  facet normal -0.587785 0.809017 0
    outer loop
      vertex -14 -0.339746 0
      vertex -15.6913 -1.56855 2.5
      vertex -14 -0.339746 2.5
    endloop
  endfacet
  facet normal -0.743145 0.669131 0
    outer loop
      vertex -17.0902 -3.12215 0
      vertex -17.0902 -3.12215 2.5
      vertex -15.6913 -1.56855 0
    endloop
  endfacet
  facet normal -0.743145 0.669131 0
    outer loop
      vertex -15.6913 -1.56855 0
      vertex -17.0902 -3.12215 2.5
      vertex -15.6913 -1.56855 2.5
    endloop
  endfacet
  facet normal -0.866025 0.5 0
    outer loop
      vertex -18.1355 -4.93263 0
      vertex -18.1355 -4.93263 2.5
      vertex -17.0902 -3.12215 0
    endloop
  endfacet
  facet normal -0.866025 0.5 0
    outer loop
      vertex -17.0902 -3.12215 0
      vertex -18.1355 -4.93263 2.5
      vertex -17.0902 -3.12215 2.5
    endloop
  endfacet
  facet normal -0.951057 0.309017 0
    outer loop
      vertex -18.7815 -6.92088 0
      vertex -18.7815 -6.92088 2.5
      vertex -18.1355 -4.93263 0
    endloop
  endfacet
  facet normal -0.951057 0.309017 0
    outer loop
      vertex -18.1355 -4.93263 0
      vertex -18.7815 -6.92088 2.5
      vertex -18.1355 -4.93263 2.5
    endloop
  endfacet
  facet normal -0.207912 -0.978148 0
    outer loop
      vertex -2.1883 -1.70226 2.5
      vertex -2.1883 -1.70226 0
      vertex -1.04529 -1.94522 0
    endloop
  endfacet
  facet normal -0.207912 -0.978148 0
    outer loop
      vertex -1.04529 -1.94522 2.5
      vertex -2.1883 -1.70226 2.5
      vertex -1.04529 -1.94522 0
    endloop
  endfacet
  facet normal 0 -1 0
    outer loop
      vertex -1.04529 -1.94522 2.5
      vertex -1.04529 -1.94522 0
      vertex 1.04529 -1.94522 0
    endloop
  endfacet
  facet normal 0 -1 0
    outer loop
      vertex 1.04529 -1.94522 2.5
      vertex -1.04529 -1.94522 2.5
      vertex 1.04529 -1.94522 0
    endloop
  endfacet
  facet normal 0.207912 -0.978148 0
    outer loop
      vertex 1.04529 -1.94522 2.5
      vertex 1.04529 -1.94522 0
      vertex 2.1883 -1.70226 0
    endloop
  endfacet
  facet normal 0.207912 -0.978148 0
    outer loop
      vertex 2.1883 -1.70226 2.5
      vertex 1.04529 -1.94522 2.5
      vertex 2.1883 -1.70226 0
    endloop
  endfacet
  facet normal -0.743145 0.669131 0
    outer loop
      vertex 0.90983 -3.12215 0
      vertex 0.90983 -3.12215 2.5
      vertex 2.1883 -1.70226 0
    endloop
  endfacet
  facet normal -0.743145 0.669131 0
    outer loop
      vertex 2.1883 -1.70226 0
      vertex 0.90983 -3.12215 2.5
      vertex 2.1883 -1.70226 2.5
    endloop
  endfacet
  facet normal -0.866025 0.5 0
    outer loop
      vertex 0 -4.69802 0
      vertex 0 -4.69802 2.5
      vertex 0.90983 -3.12215 0
    endloop
  endfacet
  facet normal -0.866025 0.5 0
    outer loop
      vertex 0.90983 -3.12215 0
      vertex 0 -4.69802 2.5
      vertex 0.90983 -3.12215 2.5
    endloop
  endfacet
  facet normal 0.866025 0.5 0
    outer loop
      vertex 0 -4.69802 0
      vertex -0.90983 -3.12215 0
      vertex -0.90983 -3.12215 2.5
    endloop
  endfacet
  facet normal 0.866025 0.5 0
    outer loop
      vertex 0 -4.69802 2.5
      vertex 0 -4.69802 0
      vertex -0.90983 -3.12215 2.5
    endloop
  endfacet
  facet normal 0.743145 0.669131 0
    outer loop
      vertex -0.90983 -3.12215 0
      vertex -2.1883 -1.70226 0
      vertex -2.1883 -1.70226 2.5
    endloop
  endfacet
  facet normal 0.743145 0.669131 0
    outer loop
      vertex -0.90983 -3.12215 2.5
      vertex -0.90983 -3.12215 0
      vertex -2.1883 -1.70226 2.5
    endloop
  endfacet
  facet normal 0 0 1
    outer loop
      vertex -18.7815 -6.92088 2.5
      vertex -19 -9 2.5
      vertex -18.7815 -11.0791 2.5
    endloop
  endfacet
  facet normal 0 0 1
    outer loop
      vertex 3.75556 -12.9411 2.5
      vertex -7.25 -4.50481 2.5
      vertex -5.6967 -5.6967 2.5
    endloop
  endfacet
  facet normal 0 0 1
    outer loop
      vertex -18.5 -11 2.5
      vertex -18.7815 -6.92088 2.5
      vertex -18.7815 -11.0791 2.5
    endloop
  endfacet
  facet normal 0 0 1
    outer loop
      vertex -18.2907 -12.5894 2.5
      vertex -18.5 -11 2.5
      vertex -18.7815 -11.0791 2.5
    endloop
  endfacet
  facet normal 0 0 1
    outer loop
      vertex 4.61434 16.832 2.5
      vertex 5.3033 16.3033 2.5
      vertex 5 16.6603 2.5
    endloop
  endfacet
  facet normal 0 0 1
    outer loop
      vertex -17.4952 -7.25 2.5
      vertex -18.7815 -6.92088 2.5
      vertex -18.2444 -9.05886 2.5
    endloop
  endfacet
  facet normal 0 0 1
    outer loop
      vertex -16.3033 -5.6967 2.5
      vertex -18.7815 -6.92088 2.5
      vertex -17.4952 -7.25 2.5
    endloop
  endfacet
  facet normal 0 0 1
    outer loop
      vertex -14.75 -4.50481 2.5
      vertex -18.7815 -6.92088 2.5
      vertex -16.3033 -5.6967 2.5
    endloop
  endfacet
  facet normal 0 0 1
    outer loop
      vertex -7.95471 0.945219 2.5
      vertex -10.0453 0.945219 2.5
      vertex -18.7815 -6.92088 2.5
    endloop
  endfacet
  facet normal 0 0 1
    outer loop
      vertex 9.78148 5.92088 2.5
      vertex -14.75 -4.50481 2.5
      vertex -12.9411 -3.75556 2.5
    endloop
  endfacet
  facet normal 0 0 1
    outer loop
      vertex 5.6967 -5.6967 2.5
      vertex -11 -3.5 2.5
      vertex -9.05886 -3.75556 2.5
    endloop
  endfacet
  facet normal 0 0 1
    outer loop
      vertex 3.75556 -9.05886 2.5
      vertex -9.05886 -3.75556 2.5
      vertex -7.25 -4.50481 2.5
    endloop
  endfacet
  facet normal 0 0 1
    outer loop
      vertex 4.50481 -14.75 2.5
      vertex 3.75556 -12.9411 2.5
      vertex -5.6967 -5.6967 2.5
    endloop
  endfacet
  facet normal 0 0 1
    outer loop
      vertex 4 -17.6603 2.5
      vertex -5.6967 -5.6967 2.5
      vertex -4.50481 -7.25 2.5
    endloop
  endfacet
  facet normal 0 0 1
    outer loop
      vertex -0.90983 -14.8779 2.5
      vertex -4.50481 -7.25 2.5
      vertex -3.75556 -9.05886 2.5
    endloop
  endfacet
  facet normal 0 0 1
    outer loop
      vertex -2.30869 -16.4314 2.5
      vertex -3.75556 -9.05886 2.5
      vertex -3.5 -11 2.5
    endloop
  endfacet
  facet normal 0 0 1
    outer loop
      vertex -4 -17.6603 2.5
      vertex -3.5 -11 2.5
      vertex -3.75556 -12.9411 2.5
    endloop
  endfacet
  facet normal 0 0 1
    outer loop
      vertex -5.90983 -18.5106 2.5
      vertex -3.75556 -12.9411 2.5
      vertex -4.50481 -14.75 2.5
    endloop
  endfacet
  facet normal 0 0 1
    outer loop
      vertex -5.90983 -18.5106 2.5
      vertex -4.50481 -14.75 2.5
      vertex -5.6967 -16.3033 2.5
    endloop
  endfacet
  facet normal 0 0 1
    outer loop
      vertex -7.95471 -18.9452 2.5
      vertex -5.6967 -16.3033 2.5
      vertex -7.25 -17.4952 2.5
    endloop
  endfacet
  facet normal 0 0 1
    outer loop
      vertex -10.0453 -18.9452 2.5
      vertex -7.25 -17.4952 2.5
      vertex -9.05886 -18.2444 2.5
    endloop
  endfacet
  facet normal 0 0 1
    outer loop
      vertex -10.0453 -18.9452 2.5
      vertex -9.05886 -18.2444 2.5
      vertex -11 -18.5 2.5
    endloop
  endfacet
  facet normal 0 0 1
    outer loop
      vertex -12.0902 -18.5106 2.5
      vertex -11 -18.5 2.5
      vertex -12.5816 -18.2918 2.5
    endloop
  endfacet
  facet normal 0 0 1
    outer loop
      vertex -10.0453 -18.9452 2.5
      vertex -11 -18.5 2.5
      vertex -12.0902 -18.5106 2.5
    endloop
  endfacet
  facet normal 0 0 1
    outer loop
      vertex -7.95471 -18.9452 2.5
      vertex -7.25 -17.4952 2.5
      vertex -10.0453 -18.9452 2.5
    endloop
  endfacet
  facet normal 0 0 1
    outer loop
      vertex -5.90983 -18.5106 2.5
      vertex -5.6967 -16.3033 2.5
      vertex -7.95471 -18.9452 2.5
    endloop
  endfacet
  facet normal 0 0 1
    outer loop
      vertex -4 -17.6603 2.5
      vertex -3.75556 -12.9411 2.5
      vertex -5.90983 -18.5106 2.5
    endloop
  endfacet
  facet normal 0 0 1
    outer loop
      vertex -2.30869 -16.4314 2.5
      vertex -3.5 -11 2.5
      vertex -4 -17.6603 2.5
    endloop
  endfacet
  facet normal 0 0 1
    outer loop
      vertex -0.90983 -14.8779 2.5
      vertex -3.75556 -9.05886 2.5
      vertex -2.30869 -16.4314 2.5
    endloop
  endfacet
  facet normal 0 0 1
    outer loop
      vertex 0 -13.302 2.5
      vertex -4.50481 -7.25 2.5
      vertex -0.90983 -14.8779 2.5
    endloop
  endfacet
  facet normal 0 0 1
    outer loop
      vertex 4 -17.6603 2.5
      vertex -4.50481 -7.25 2.5
      vertex 0 -13.302 2.5
    endloop
  endfacet
  facet normal 0 0 1
    outer loop
      vertex 2.30869 -16.4314 2.5
      vertex 0 -13.302 2.5
      vertex 0.90983 -14.8779 2.5
    endloop
  endfacet
  facet normal 0 0 1
    outer loop
      vertex 4 -17.6603 2.5
      vertex 0 -13.302 2.5
      vertex 2.30869 -16.4314 2.5
    endloop
  endfacet
  facet normal 0 0 1
    outer loop
      vertex 5.90983 -18.5106 2.5
      vertex -5.6967 -5.6967 2.5
      vertex 4 -17.6603 2.5
    endloop
  endfacet
  facet normal 0 0 1
    outer loop
      vertex 7.95471 -18.9452 2.5
      vertex -5.6967 -5.6967 2.5
      vertex 5.90983 -18.5106 2.5
    endloop
  endfacet
  facet normal 0 0 1
    outer loop
      vertex 5.6967 -16.3033 2.5
      vertex -5.6967 -5.6967 2.5
      vertex 7.95471 -18.9452 2.5
    endloop
  endfacet
  facet normal 0 0 1
    outer loop
      vertex 5.6967 -16.3033 2.5
      vertex 4.50481 -14.75 2.5
      vertex -5.6967 -5.6967 2.5
    endloop
  endfacet
  facet normal 0 0 1
    outer loop
      vertex 5.3033 16.3033 2.5
      vertex 6.49519 14.75 2.5
      vertex 6.69131 15.4314 2.5
    endloop
  endfacet
  facet normal 0 0 1
    outer loop
      vertex -9.78148 10.0791 2.5
      vertex -6.49519 14.75 2.5
      vertex -6.69131 15.4314 2.5
    endloop
  endfacet
  facet normal 0 0 1
    outer loop
      vertex 12.0902 -18.5106 2.5
      vertex 11 -18.5 2.5
      vertex 10.0453 -18.9452 2.5
    endloop
  endfacet
  facet normal 0 0 1
    outer loop
      vertex 10.0453 -18.9452 2.5
      vertex 9.05886 -18.2444 2.5
      vertex 7.95471 -18.9452 2.5
    endloop
  endfacet
  facet normal 0 0 1
    outer loop
      vertex 9.05886 -18.2444 2.5
      vertex 7.25 -17.4952 2.5
      vertex 7.95471 -18.9452 2.5
    endloop
  endfacet
  facet normal 0 0 1
    outer loop
      vertex 7.25 -17.4952 2.5
      vertex 5.6967 -16.3033 2.5
      vertex 7.95471 -18.9452 2.5
    endloop
  endfacet
  facet normal 0 0 1
    outer loop
      vertex 3.75556 -12.9411 2.5
      vertex 3.5 -11 2.5
      vertex -7.25 -4.50481 2.5
    endloop
  endfacet
  facet normal 0 0 1
    outer loop
      vertex 11 -18.5 2.5
      vertex 9.05886 -18.2444 2.5
      vertex 10.0453 -18.9452 2.5
    endloop
  endfacet
  facet normal 0 0 1
    outer loop
      vertex 3.75556 -9.05886 2.5
      vertex -7.25 -4.50481 2.5
      vertex 3.5 -11 2.5
    endloop
  endfacet
  facet normal 0 0 1
    outer loop
      vertex 4.50481 -7.25 2.5
      vertex -9.05886 -3.75556 2.5
      vertex 3.75556 -9.05886 2.5
    endloop
  endfacet
  facet normal 0 0 1
    outer loop
      vertex 5.6967 -5.6967 2.5
      vertex -9.05886 -3.75556 2.5
      vertex 4.50481 -7.25 2.5
    endloop
  endfacet
  facet normal 0 0 1
    outer loop
      vertex 0 -4.69802 2.5
      vertex -11 -3.5 2.5
      vertex 5.6967 -5.6967 2.5
    endloop
  endfacet
  facet normal 0 0 1
    outer loop
      vertex 0 -4.69802 2.5
      vertex -0.90983 -3.12215 2.5
      vertex -11 -3.5 2.5
    endloop
  endfacet
  facet normal 0 0 1
    outer loop
      vertex 17.0902 -3.12215 2.5
      vertex 11 -3.5 2.5
      vertex 12.9411 -3.75556 2.5
    endloop
  endfacet
  facet normal 0 0 1
    outer loop
      vertex 18.1355 -4.93263 2.5
      vertex 12.9411 -3.75556 2.5
      vertex 14.75 -4.50481 2.5
    endloop
  endfacet
  facet normal 0 0 1
    outer loop
      vertex 18.7815 -6.92088 2.5
      vertex 14.75 -4.50481 2.5
      vertex 16.3033 -5.6967 2.5
    endloop
  endfacet
  facet normal 0 0 1
    outer loop
      vertex 19 -9 2.5
      vertex 16.3033 -5.6967 2.5
      vertex 17.4952 -7.25 2.5
    endloop
  endfacet
  facet normal 0 0 1
    outer loop
      vertex 19 -9 2.5
      vertex 17.4952 -7.25 2.5
      vertex 18.2444 -9.05886 2.5
    endloop
  endfacet
  facet normal 0 0 1
    outer loop
      vertex 18.7815 -11.0791 2.5
      vertex 18.2444 -9.05886 2.5
      vertex 18.5 -11 2.5
    endloop
  endfacet
  facet normal 0 0 1
    outer loop
      vertex 18.7815 -11.0791 2.5
      vertex 18.5 -11 2.5
      vertex 18.2907 -12.5894 2.5
    endloop
  endfacet
  facet normal 0 0 1
    outer loop
      vertex 19 -9 2.5
      vertex 18.2444 -9.05886 2.5
      vertex 18.7815 -11.0791 2.5
    endloop
  endfacet
  facet normal 0 0 1
    outer loop
      vertex 18.7815 -6.92088 2.5
      vertex 16.3033 -5.6967 2.5
      vertex 19 -9 2.5
    endloop
  endfacet
  facet normal 0 0 1
    outer loop
      vertex 18.1355 -4.93263 2.5
      vertex 14.75 -4.50481 2.5
      vertex 18.7815 -6.92088 2.5
    endloop
  endfacet
  facet normal 0 0 1
    outer loop
      vertex 17.0902 -3.12215 2.5
      vertex 12.9411 -3.75556 2.5
      vertex 18.1355 -4.93263 2.5
    endloop
  endfacet
  facet normal 0 0 1
    outer loop
      vertex 0.90983 -3.12215 2.5
      vertex 0 -4.69802 2.5
      vertex 7.25 -4.50481 2.5
    endloop
  endfacet
  facet normal 0 0 1
    outer loop
      vertex 7.95471 0.945219 2.5
      vertex -12.9411 -3.75556 2.5
      vertex 10.0453 0.945219 2.5
    endloop
  endfacet
  facet normal 0 0 1
    outer loop
      vertex 6.8117 0.702264 2.5
      vertex -12.9411 -3.75556 2.5
      vertex 7.95471 0.945219 2.5
    endloop
  endfacet
  facet normal 0 0 1
    outer loop
      vertex 8.09017 2.12215 2.5
      vertex -12.9411 -3.75556 2.5
      vertex 6.8117 0.702264 2.5
    endloop
  endfacet
  facet normal 0 0 1
    outer loop
      vertex 9.13546 3.93263 2.5
      vertex -12.9411 -3.75556 2.5
      vertex 8.09017 2.12215 2.5
    endloop
  endfacet
  facet normal 0 0 1
    outer loop
      vertex 9.78148 5.92088 2.5
      vertex -12.9411 -3.75556 2.5
      vertex 9.13546 3.93263 2.5
    endloop
  endfacet
  facet normal 0 0 1
    outer loop
      vertex 3.75 4.50481 2.5
      vertex -14.75 -4.50481 2.5
      vertex 9.78148 5.92088 2.5
    endloop
  endfacet
  facet normal 0 0 1
    outer loop
      vertex 0 3.5 2.5
      vertex -1.94114 3.75556 2.5
      vertex -14.75 -4.50481 2.5
    endloop
  endfacet
  facet normal 0 0 1
    outer loop
      vertex -12.0902 0.510565 2.5
      vertex -14 -0.339746 2.5
      vertex -18.7815 -6.92088 2.5
    endloop
  endfacet
  facet normal 0 0 1
    outer loop
      vertex -8.09017 2.12215 2.5
      vertex -6.8117 0.702264 2.5
      vertex -1.94114 3.75556 2.5
    endloop
  endfacet
  facet normal 0 0 1
    outer loop
      vertex 5 16.6603 2.5
      vertex 5.3033 16.3033 2.5
      vertex 6.69131 15.4314 2.5
    endloop
  endfacet
  facet normal 0 0 1
    outer loop
      vertex 6.69131 15.4314 2.5
      vertex 6.49519 14.75 2.5
      vertex 8.09017 13.8779 2.5
    endloop
  endfacet
  facet normal 0 0 1
    outer loop
      vertex -5.3033 5.6967 2.5
      vertex -6.49519 7.25 2.5
      vertex -9.13546 3.93263 2.5
    endloop
  endfacet
  facet normal 0 0 1
    outer loop
      vertex 8.09017 13.8779 2.5
      vertex 7.24444 12.9411 2.5
      vertex 9.13546 12.0674 2.5
    endloop
  endfacet
  facet normal 0 0 1
    outer loop
      vertex -6.8117 0.702264 2.5
      vertex -18.7815 -6.92088 2.5
      vertex -14.75 -4.50481 2.5
    endloop
  endfacet
  facet normal 0 0 1
    outer loop
      vertex 7.24444 12.9411 2.5
      vertex 7.5 11 2.5
      vertex 9.13546 12.0674 2.5
    endloop
  endfacet
  facet normal 0 0 1
    outer loop
      vertex 9.13546 12.0674 2.5
      vertex 7.24444 9.05886 2.5
      vertex 9.78148 10.0791 2.5
    endloop
  endfacet
  facet normal 0 0 1
    outer loop
      vertex 9.78148 10.0791 2.5
      vertex 6.49519 7.25 2.5
      vertex 10 8 2.5
    endloop
  endfacet
  facet normal 0 0 1
    outer loop
      vertex 6.49519 7.25 2.5
      vertex 5.3033 5.6967 2.5
      vertex 10 8 2.5
    endloop
  endfacet
  facet normal 0 0 1
    outer loop
      vertex 10 8 2.5
      vertex 3.75 4.50481 2.5
      vertex 9.78148 5.92088 2.5
    endloop
  endfacet
  facet normal 0 0 1
    outer loop
      vertex 1.94114 3.75556 2.5
      vertex -14.75 -4.50481 2.5
      vertex 3.75 4.50481 2.5
    endloop
  endfacet
  facet normal 0 0 1
    outer loop
      vertex 1.94114 3.75556 2.5
      vertex 0 3.5 2.5
      vertex -14.75 -4.50481 2.5
    endloop
  endfacet
  facet normal 0 0 1
    outer loop
      vertex -6.8117 0.702264 2.5
      vertex -7.95471 0.945219 2.5
      vertex -18.7815 -6.92088 2.5
    endloop
  endfacet
  facet normal 0 0 1
    outer loop
      vertex -6.8117 0.702264 2.5
      vertex -14.75 -4.50481 2.5
      vertex -1.94114 3.75556 2.5
    endloop
  endfacet
  facet normal 0 0 1
    outer loop
      vertex -9.78148 10.0791 2.5
      vertex -10 8 2.5
      vertex -7.24444 12.9411 2.5
    endloop
  endfacet
  facet normal 0 0 1
    outer loop
      vertex -9.78148 10.0791 2.5
      vertex -7.24444 12.9411 2.5
      vertex -6.49519 14.75 2.5
    endloop
  endfacet
  facet normal 0 0 1
    outer loop
      vertex -15.6913 -1.56855 2.5
      vertex -17.0902 -3.12215 2.5
      vertex -18.7815 -6.92088 2.5
    endloop
  endfacet
  facet normal 0 0 1
    outer loop
      vertex -10 8 2.5
      vertex -9.78148 5.92088 2.5
      vertex -7.5 11 2.5
    endloop
  endfacet
  facet normal 0 0 1
    outer loop
      vertex -9.78148 5.92088 2.5
      vertex -9.13546 3.93263 2.5
      vertex -6.49519 7.25 2.5
    endloop
  endfacet
  facet normal 0 0 1
    outer loop
      vertex -6.69131 15.4314 2.5
      vertex -6.49519 14.75 2.5
      vertex -5.3033 16.3033 2.5
    endloop
  endfacet
  facet normal 0 0 1
    outer loop
      vertex -5 16.6603 2.5
      vertex -5.3033 16.3033 2.5
      vertex -4.61434 16.832 2.5
    endloop
  endfacet
  facet normal 0 0 1
    outer loop
      vertex -6.69131 15.4314 2.5
      vertex -5.3033 16.3033 2.5
      vertex -5 16.6603 2.5
    endloop
  endfacet
  facet normal 0 0 1
    outer loop
      vertex -11 -3.5 2.5
      vertex -2.1883 -1.70226 2.5
      vertex -12.9411 -3.75556 2.5
    endloop
  endfacet
  facet normal 0 0 1
    outer loop
      vertex 0.90983 -3.12215 2.5
      vertex 11 -3.5 2.5
      vertex 17.0902 -3.12215 2.5
    endloop
  endfacet
  facet normal 0 0 1
    outer loop
      vertex -2.1883 -1.70226 2.5
      vertex -1.04529 -1.94522 2.5
      vertex 12.0902 0.510565 2.5
    endloop
  endfacet
  facet normal 0 0 1
    outer loop
      vertex -8.09017 13.8779 2.5
      vertex -9.78148 10.0791 2.5
      vertex -6.69131 15.4314 2.5
    endloop
  endfacet
  facet normal 0 0 1
    outer loop
      vertex -7.24444 12.9411 2.5
      vertex -10 8 2.5
      vertex -7.5 11 2.5
    endloop
  endfacet
  facet normal 0 0 1
    outer loop
      vertex -7.5 11 2.5
      vertex -9.78148 5.92088 2.5
      vertex -7.24444 9.05886 2.5
    endloop
  endfacet
  facet normal 0 0 1
    outer loop
      vertex 0.90983 -3.12215 2.5
      vertex 9.05886 -3.75556 2.5
      vertex 11 -3.5 2.5
    endloop
  endfacet
  facet normal 0 0 1
    outer loop
      vertex -10.0453 0.945219 2.5
      vertex -12.0902 0.510565 2.5
      vertex -18.7815 -6.92088 2.5
    endloop
  endfacet
  facet normal 0 0 1
    outer loop
      vertex -8.09017 2.12215 2.5
      vertex -1.94114 3.75556 2.5
      vertex -3.75 4.50481 2.5
    endloop
  endfacet
  facet normal 0 0 1
    outer loop
      vertex 7.24444 9.05886 2.5
      vertex 6.49519 7.25 2.5
      vertex 9.78148 10.0791 2.5
    endloop
  endfacet
  facet normal 0 0 1
    outer loop
      vertex 5.3033 5.6967 2.5
      vertex 3.75 4.50481 2.5
      vertex 10 8 2.5
    endloop
  endfacet
  facet normal 0 0 1
    outer loop
      vertex -14 -0.339746 2.5
      vertex -15.6913 -1.56855 2.5
      vertex -18.7815 -6.92088 2.5
    endloop
  endfacet
  facet normal 0 0 1
    outer loop
      vertex 6.49519 14.75 2.5
      vertex 7.24444 12.9411 2.5
      vertex 8.09017 13.8779 2.5
    endloop
  endfacet
  facet normal 0 0 1
    outer loop
      vertex -9.13546 12.0674 2.5
      vertex -9.78148 10.0791 2.5
      vertex -8.09017 13.8779 2.5
    endloop
  endfacet
  facet normal 0 0 1
    outer loop
      vertex -9.13546 3.93263 2.5
      vertex -8.09017 2.12215 2.5
      vertex -5.3033 5.6967 2.5
    endloop
  endfacet
  facet normal 0 0 1
    outer loop
      vertex -9.78148 5.92088 2.5
      vertex -6.49519 7.25 2.5
      vertex -7.24444 9.05886 2.5
    endloop
  endfacet
  facet normal 0 0 1
    outer loop
      vertex -18.1355 -4.93263 2.5
      vertex -18.7815 -6.92088 2.5
      vertex -17.0902 -3.12215 2.5
    endloop
  endfacet
  facet normal 0 0 1
    outer loop
      vertex 10.0453 0.945219 2.5
      vertex -2.1883 -1.70226 2.5
      vertex 12.0902 0.510565 2.5
    endloop
  endfacet
  facet normal 0 0 1
    outer loop
      vertex 10.0453 0.945219 2.5
      vertex -12.9411 -3.75556 2.5
      vertex -2.1883 -1.70226 2.5
    endloop
  endfacet
  facet normal 0 0 1
    outer loop
      vertex 12.0902 0.510565 2.5
      vertex -1.04529 -1.94522 2.5
      vertex 14 -0.339746 2.5
    endloop
  endfacet
  facet normal 0 0 1
    outer loop
      vertex 2.1883 -1.70226 2.5
      vertex 15.6913 -1.56855 2.5
      vertex 14 -0.339746 2.5
    endloop
  endfacet
  facet normal 0 0 1
    outer loop
      vertex 0.90983 -3.12215 2.5
      vertex 7.25 -4.50481 2.5
      vertex 9.05886 -3.75556 2.5
    endloop
  endfacet
  facet normal 0 0 1
    outer loop
      vertex 2.1883 -1.70226 2.5
      vertex 0.90983 -3.12215 2.5
      vertex 15.6913 -1.56855 2.5
    endloop
  endfacet
  facet normal 0 0 1
    outer loop
      vertex -1.04529 -1.94522 2.5
      vertex 2.1883 -1.70226 2.5
      vertex 14 -0.339746 2.5
    endloop
  endfacet
  facet normal 0 0 1
    outer loop
      vertex -1.04529 -1.94522 2.5
      vertex 1.04529 -1.94522 2.5
      vertex 2.1883 -1.70226 2.5
    endloop
  endfacet
  facet normal 0 0 1
    outer loop
      vertex 15.6913 -1.56855 2.5
      vertex 0.90983 -3.12215 2.5
      vertex 17.0902 -3.12215 2.5
    endloop
  endfacet
  facet normal 0 0 1
    outer loop
      vertex 7.25 -4.50481 2.5
      vertex 0 -4.69802 2.5
      vertex 5.6967 -5.6967 2.5
    endloop
  endfacet
  facet normal 0 0 1
    outer loop
      vertex -18.5 -11 2.5
      vertex -18.2444 -9.05886 2.5
      vertex -18.7815 -6.92088 2.5
    endloop
  endfacet
  facet normal 0 0 1
    outer loop
      vertex 12.5816 -18.2918 2.5
      vertex 11 -18.5 2.5
      vertex 12.0902 -18.5106 2.5
    endloop
  endfacet
  facet normal 0 0 1
    outer loop
      vertex 7.5 11 2.5
      vertex 7.24444 9.05886 2.5
      vertex 9.13546 12.0674 2.5
    endloop
  endfacet
  facet normal 0 0 1
    outer loop
      vertex -3.75 4.50481 2.5
      vertex -5.3033 5.6967 2.5
      vertex -8.09017 2.12215 2.5
    endloop
  endfacet
  facet normal 0 0 1
    outer loop
      vertex -0.90983 -3.12215 2.5
      vertex -2.1883 -1.70226 2.5
      vertex -11 -3.5 2.5
    endloop
  endfacet
endsolid OpenSCAD_Model
